<?xml version="1.0" encoding="utf-8"?>
<!-- Generator: Adobe Illustrator 24.1.2, SVG Export Plug-In . SVG Version: 6.00 Build 0)  -->
<svg version="1.1" xmlns="http://www.w3.org/2000/svg" xmlns:xlink="http://www.w3.org/1999/xlink" x="0px" y="0px"
	 viewBox="0 0 32 32" style="enable-background:new 0 0 32 32;" xml:space="preserve">
<style type="text/css">
	.st0{display:none;}
	.st1{display:inline;fill:#272B5F;}
	.st2{fill:none;stroke:#E4E46B;stroke-width:0.25;stroke-miterlimit:10;}
	.st3{fill:none;stroke:#E4E46B;stroke-width:0.15;stroke-miterlimit:10;}
	.st4{fill:none;stroke:#E4E46B;stroke-width:0.1;stroke-miterlimit:10;}
</style>
<g id="Слой_1">
</g>
<g id="Слой_3" class="st0">
	<rect class="st1" width="32" height="32"/>
</g>
<g id="Слой_2">
	<polygon class="st2" points="25.99,13.23 28.07,11.8 28.77,12.51 28.42,15.85 27.69,17.5 25.29,19.3 24.75,18.76 24.97,15.24 	"/>
	<polyline class="st2" points="22.73,13.57 22.39,14.21 22.18,17.83 24.75,18.76 	"/>
	<polyline class="st2" points="23.11,12.72 23.46,12.21 25.73,10.72 28.07,11.8 	"/>
	<line class="st2" x1="23.46" y1="12.21" x2="25.99" y2="13.23"/>
	<line class="st2" x1="22.39" y1="14.21" x2="24.97" y2="15.24"/>
	<line class="st2" x1="22.18" y1="17.83" x2="25.27" y2="19.4"/>
	<path class="st2" d="M28.2,11.74c0.1-0.2,0.21-0.48,0.3-0.83c0.06-0.25,0.17-0.78,0.13-1.45c-0.03-0.49-0.14-0.85-0.28-1.32
		c-0.09-0.32-0.18-0.61-0.36-0.98c-0.21-0.43-0.43-0.72-0.57-0.91c-0.14-0.19-0.37-0.49-0.74-0.83c-0.12-0.11-0.43-0.38-0.89-0.66
		c-0.24-0.14-0.57-0.32-0.98-0.47c-0.27-0.1-0.54-0.2-0.94-0.26c-0.1-0.01-0.52-0.07-1.06,0c-0.43,0.05-0.74,0.16-0.83,0.19
		c-0.26,0.09-0.44,0.19-0.68,0.32c-0.94,0.52-1.28,0.6-1.26,0.7c0.01,0.06,0.15,0.06,0.53,0.13c0.03,0,0.67,0.11,1.13,0.26
		c0.39,0.12,0.66,0.27,0.96,0.43c0.22,0.12,0.54,0.3,0.93,0.61c0.11,0.09,0.5,0.41,0.91,0.93c0.22,0.28,0.35,0.49,0.61,0.91
		c0.28,0.46,0.41,0.73,0.49,0.94c0.06,0.14,0.1,0.25,0.13,0.34"/>
	<path class="st2" d="M25.02,19.36c-0.09,0.05-0.2,0.1-0.35,0.14c-0.29,0.09-0.52,0.08-0.62,0.08c-0.26-0.01-0.45-0.08-0.65-0.14
		c-0.25-0.08-0.37-0.13-0.53-0.22c-0.18-0.11-0.27-0.21-0.4-0.19c-0.04,0.01-0.05,0.02-0.22,0.13c-0.16,0.1-0.24,0.15-0.27,0.16
		c-0.18,0.06-0.44,0.03-0.54-0.11c-0.08-0.11,0-0.2-0.08-0.32c-0.06-0.09-0.13-0.08-0.35-0.18c-0.22-0.09-0.18-0.1-0.51-0.26
		c-0.16-0.07-0.37-0.16-0.37-0.16l0,0c-0.05,0.01-0.12,0.01-0.19-0.02c-0.13-0.06-0.14-0.18-0.27-0.22
		c-0.08-0.03-0.18-0.02-0.21,0.03c-0.04,0.07,0.12,0.15,0.11,0.29c0,0.06-0.04,0.12-0.4,0.37c-0.3,0.21-0.37,0.24-0.45,0.26
		c-0.09,0.02-0.21,0.05-0.35,0.01c-0.03-0.01-0.21-0.07-0.31-0.24c-0.04-0.07-0.06-0.14-0.11-0.15c-0.02,0-0.03,0.01-0.1,0.05
		c0,0-0.02,0.01-0.15,0.07l0,0"/>
	<polyline class="st2" points="21.91,26.91 14.86,23.7 13.93,24.37 10.74,24.36 4.44,21.24 3.88,14.78 10.98,17.88 12.53,19.92 
		17.6,16.59 16.24,14.57 11.03,17.85 10.83,13.61 	"/>
	<path class="st2" d="M17.71,16.66"/>
	<polyline class="st2" points="12.53,19.92 12.65,23.08 10.79,24.24 	"/>
	<line class="st2" x1="12.65" y1="23.08" x2="13.99" y2="24.33"/>
	<path class="st2" d="M3.88,14.78l-0.1-0.56l0.7,0.35L4.13,10.6l0.8-0.51L4.16,9.88l4.85-2.38l6.02,2.11l-0.41,0.34
		c0.07,0.04,0.47,0.25,0.72,0.41c0.03,0.02,0.09,0.06,0.13,0.12c0.09,0.13,0.09,0.28,0.09,0.33c0,0.23,0.02,1.88,0.05,4.16"/>
	<polyline class="st2" points="3.78,14.11 4.2,13.9 4.2,13.71 4.32,13.61 	"/>
	<ellipse transform="matrix(0.908 -0.419 0.419 0.908 -7.0303 5.314)" class="st2" cx="8.58" cy="18.66" rx="1.06" ry="1.56"/>
	<polygon class="st2" points="13.28,16.25 12.76,15.53 13.14,14.3 14.06,13.8 14.71,14.33 14.71,15.54 13.41,16.36 	"/>
	
		<ellipse transform="matrix(0.3732 -0.9277 0.9277 0.3732 -5.2591 22.3708)" class="st3" cx="13.93" cy="15.08" rx="0.56" ry="0.31"/>
	<line class="st2" x1="4.32" y1="10.62" x2="10.13" y2="12.89"/>
	<path class="st2" d="M10.16,12.83c0.08,0.03,0.19,0.08,0.31,0.18c0.07,0.06,0.16,0.13,0.23,0.27c0.07,0.13,0.09,0.25,0.1,0.32"/>
	<line class="st2" x1="4.05" y1="9.94" x2="4.13" y2="10.6"/>
	<path class="st2" d="M26.56,10.95c0.09-0.04,0.14-0.12,0.16-0.15c0.07-0.12,0.06-0.25,0.05-0.3c-0.01-0.06-0.02-0.14-0.09-0.21
		c-0.06-0.07-0.14-0.09-0.18-0.1c-0.05-0.01-0.13-0.03-0.2,0c-0.12,0.05-0.16,0.19-0.17,0.22c-0.01,0.05,0,0.05-0.02,0.23
		c-0.01,0.11-0.01,0.11-0.01,0.13C26.13,10.91,26.38,11.02,26.56,10.95z"/>
	<path class="st2" d="M26.64,10.1c-0.01-0.09-0.04-0.15-0.07-0.2c-0.05-0.07-0.09-0.08-0.29-0.21c-0.14-0.09-0.16-0.11-0.21-0.11
		c-0.07,0-0.12,0.05-0.22,0.13c-0.07,0.06-0.17,0.14-0.3,0.23l-3.58,2.35"/>
	<path class="st2" d="M22.05,12.23c-0.06,0.06-0.13,0.14-0.19,0.25c-0.1,0.19-0.12,0.37-0.12,0.44c-0.05,0.82-0.22,5.63-0.26,5.88
		c0,0.01-0.01,0.08-0.01,0.17c0,0.09,0.02,0.17,0.03,0.22c0.01,0.06,0.03,0.11,0.04,0.15"/>
	<polygon class="st2" points="23.46,6.59 23.46,6.99 20.62,8.69 19.69,8.77 16.29,7.35 16.15,6.95 19.34,5.3 20.03,5.26 	"/>
	<polyline class="st2" points="16.29,7.35 14.35,8.65 14.35,9.24 14.35,9.37 	"/>
	<polyline class="st3" points="16.47,7.51 15.18,8.51 15.06,9.29 15.51,9.37 15.94,8.7 17.18,7.72 18.18,8.14 17.04,8.97 17.03,9.8 
		15.93,9.48 15.92,8.65 17.11,9.01 	"/>
	<polyline class="st3" points="17.87,10.38 17.96,9.58 19.14,8.65 	"/>
	<polygon class="st3" points="18.8,11.29 18.89,10.38 19.75,9.66 23.86,7.35 23.68,8.6 19.36,11.24 	"/>
	<path class="st2" d="M14.47,9.39c0.24,0,0.57,0,0.95,0.05c0.34,0.05,0.98,0.13,1.7,0.48c0.25,0.12,0.61,0.3,0.99,0.64
		c0.25,0.23,0.43,0.46,0.54,0.63"/>
	<path class="st2" d="M19.55,12.51c-0.04,0.28,0.18,0.46,0.36,0.76c0.25,0.4,0.27,0.78,0.32,1.44c0.05,0.73-0.08,1.29-0.14,1.51
		c-0.19,0.72-0.45,0.99-0.53,1.06c-0.11,0.11-0.27,0.22-0.32,0.26c-0.19,0.13-0.48,0.31-0.51,0.27c-0.03-0.03,0.17-0.19,0.35-0.46
		c0.19-0.28,0.27-0.52,0.33-0.73c0.16-0.52,0.15-0.93,0.13-1.61c-0.01-0.47-0.02-0.7-0.13-0.98c-0.16-0.41-0.28-0.61-0.28-0.61
		c-0.07-0.12-0.13-0.2-0.15-0.33c-0.02-0.17,0.04-0.3,0.1-0.41c0.02-0.04,0.12-0.24,0.34-0.43c0.15-0.13,0.36-0.24,0.39-0.2
		C19.85,12.08,19.59,12.25,19.55,12.51z"/>
	<path class="st2" d="M17.88,11.62c-0.11-0.11-0.25-0.26-0.43-0.41c-0.31-0.27-0.58-0.44-0.63-0.48c-0.08-0.05-0.38-0.24-0.82-0.44
		c-0.2-0.09-0.45-0.2-0.81-0.29c-0.14-0.04-0.27-0.06-0.35-0.07"/>
	<path class="st2" d="M15.64,11.03c0.16,0.11,0.37,0.25,0.61,0.45c0.16,0.13,0.46,0.39,0.77,0.77c0.28,0.35,0.43,0.63,0.67,1.09
		c0.23,0.44,0.37,0.71,0.5,1.12c0.06,0.19,0.18,0.61,0.21,1.17c0.03,0.44,0.06,0.93-0.14,1.47c-0.13,0.36-0.34,0.68-0.37,0.72
		c-0.08,0.12-0.16,0.23-0.22,0.3"/>
	<path class="st3" d="M15.66,11.6c0.18,0.13,0.4,0.32,0.64,0.55c0.07,0.07,0.37,0.37,0.69,0.84c0.19,0.27,0.45,0.66,0.67,1.22
		c0.04,0.11,0.19,0.51,0.29,1.06c0.06,0.35,0.15,0.88,0.05,1.55c-0.04,0.3-0.13,0.72-0.34,1.2"/>
	<path class="st3" d="M15.69,12.64c0.14,0.15,0.33,0.36,0.51,0.63c0.18,0.27,0.3,0.48,0.39,0.67c0.19,0.37,0.31,0.68,0.37,0.84
		c0.12,0.32,0.25,0.73,0.34,1.23"/>
	<path class="st2" d="M17.61,16.57l-0.08,2.5c4.29,1.79,6.44,2.68,6.44,2.69c0,0-2.6-1.08-7.8-3.24"/>
	<polyline class="st3" points="20.35,14.92 21.19,15.18 21.19,16.25 20.24,16.01 	"/>
	<path class="st2" d="M16.25,18.54c-0.05-0.04-0.12-0.09-0.23-0.11c-0.1-0.02-0.18-0.01-0.28,0c-0.05,0.01-0.18,0.02-0.35,0.1
		c-0.1,0.04-0.27,0.13-0.54,0.38c-0.07,0.06-0.26,0.25-0.49,0.55c-0.27,0.36-0.44,0.67-0.5,0.8c-0.15,0.3-0.28,0.56-0.36,0.94
		c-0.08,0.38-0.07,0.67-0.05,0.9c0.02,0.33,0.03,0.55,0.17,0.79c0.04,0.07,0.13,0.22,0.32,0.35c0.11,0.08,0.22,0.12,0.3,0.14
		l0.63,0.33"/>
	<path class="st2" d="M24.64,23.03c0.02-0.1,0.05-0.3,0-0.52c-0.03-0.13-0.08-0.36-0.29-0.52c-0.26-0.21-0.57-0.17-0.65-0.16
		c-0.06,0.01-0.24,0.04-0.56,0.32c-0.33,0.28-0.51,0.56-0.68,0.81c-0.26,0.39-0.4,0.72-0.48,0.9c-0.03,0.07-0.14,0.35-0.23,0.72
		c-0.09,0.37-0.13,0.67-0.15,0.89c-0.04,0.45,0,0.66,0.02,0.74c0.04,0.16,0.08,0.28,0.12,0.36c0.09,0.22,0.14,0.33,0.22,0.38
		c0.16,0.1,0.39,0.01,0.59-0.06c0.08-0.03,0.21-0.09,0.35-0.2c0.11-0.09,0.19-0.18,0.24-0.26"/>
	<path class="st3" d="M25.15,23.32c-0.16-0.09-0.3-0.16-0.39-0.2c-0.24-0.11-0.3-0.11-0.53-0.22c-0.11-0.05-0.14-0.08-0.21-0.1
		c-0.19-0.05-0.35-0.01-0.39,0c-0.25,0.06-0.39,0.23-0.55,0.43c-0.14,0.17-0.22,0.32-0.38,0.62c-0.17,0.32-0.26,0.48-0.34,0.72
		c-0.06,0.17-0.14,0.42-0.15,0.74c-0.01,0.21-0.01,0.4,0.1,0.61c0.04,0.07,0.12,0.23,0.3,0.33c0.08,0.05,0.1,0.03,0.31,0.1
		c0.07,0.02,0.22,0.07,0.38,0.15c0.27,0.13,0.27,0.19,0.4,0.2c0.16,0.02,0.29-0.06,0.38-0.11c0.15-0.09,0.25-0.2,0.3-0.27"/>
	<path class="st3" d="M25.35,24.05c0.01-0.07,0.03-0.19,0.01-0.32c-0.02-0.12-0.03-0.26-0.13-0.36c-0.14-0.15-0.4-0.16-0.56-0.11
		c-0.18,0.05-0.28,0.17-0.48,0.41c-0.06,0.07-0.19,0.24-0.33,0.49c-0.04,0.07-0.19,0.34-0.3,0.73c-0.05,0.17-0.1,0.34-0.12,0.57
		c-0.02,0.26,0,0.48,0.02,0.61c0.01,0.1,0.01,0.19,0.05,0.31c0.04,0.1,0.09,0.18,0.13,0.23"/>
	<polyline class="st3" points="25.21,26.05 24.84,26.36 24.24,26.27 23.81,26 23.87,25.21 24.09,24.62 24.67,23.94 25.21,24.01 
		25.65,24.29 25.7,24.82 	"/>
	<path class="st3" d="M25.56,24.8c0.1-0.01,0.25-0.03,0.44-0.06c0.32-0.06,0.46-0.13,0.78-0.22c0.44-0.13,0.66-0.2,0.91-0.19
		c0.36,0.01,0.63,0.13,0.78,0.19c0.08,0.04,0.42,0.2,0.76,0.55c0.12,0.13,0.53,0.58,0.64,1.28c0.03,0.21,0.08,0.5-0.03,0.83
		c-0.09,0.29-0.26,0.48-0.41,0.66c-0.11,0.12-0.29,0.34-0.61,0.51c-0.22,0.12-0.4,0.17-0.47,0.19c-0.02,0.01-0.14,0.03-0.15,0.03
		c-0.01,0-0.02,0-0.02,0c-0.01,0-0.02,0-0.02,0c0,0-0.01,0-0.02,0c0,0-0.03,0.01-0.07,0.01c-0.19,0.02-0.39,0-0.39,0
		c-0.07-0.01-0.27-0.04-0.51-0.15c-0.22-0.1-0.36-0.22-0.49-0.33c-0.14-0.12-0.23-0.22-0.39-0.4c-0.21-0.23-0.35-0.43-0.4-0.5
		c-0.2-0.27-0.16-0.26-0.34-0.5c-0.15-0.19-0.2-0.24-0.24-0.36c-0.06-0.18-0.05-0.33-0.04-0.44c0.01-0.16,0.03-0.33,0.15-0.48
		c0.07-0.09,0.15-0.12,0.56-0.26c0.37-0.12,0.55-0.18,0.6-0.19c0.14-0.03,0.43-0.08,0.79,0c0.41,0.09,0.68,0.31,0.85,0.45
		c0.08,0.07,0.39,0.33,0.64,0.78c0.16,0.3,0.23,0.56,0.26,0.68c0.03,0.16,0.07,0.34,0.04,0.56c-0.01,0.08-0.03,0.25-0.13,0.44
		c-0.14,0.28-0.37,0.43-0.54,0.54c-0.12,0.08-0.22,0.13-0.3,0.17"/>
	
		<ellipse transform="matrix(0.7071 -0.7071 0.7071 0.7071 -10.9238 27.1947)" class="st4" cx="27.37" cy="26.78" rx="1.27" ry="1.69"/>
	
		<ellipse transform="matrix(0.6637 -0.748 0.748 0.6637 -10.8311 29.4778)" class="st4" cx="27.37" cy="26.78" rx="0.94" ry="1.26"/>
	<polygon class="st2" points="3.78,15.08 3.49,14.97 2.95,15.83 2.95,16.89 3.27,17.33 4.05,17.65 	"/>
	<path class="st2" d="M2.95,16.52c0.06-0.08,0.16-0.18,0.29-0.24c0.35-0.14,0.65,0.16,0.69,0.21"/>
	<ellipse transform="matrix(0.9427 -0.3337 0.3337 0.9427 -5.5208 3.3457)" class="st3" cx="6.98" cy="17.74" rx="0.3" ry="0.49"/>
	<ellipse transform="matrix(0.9427 -0.3337 0.3337 0.9427 -5.8437 4.6066)" class="st3" cx="10.49" cy="19.31" rx="0.3" ry="0.49"/>
	<line class="st2" x1="10.66" y1="13.06" x2="15.47" y2="10.48"/>
	<polyline class="st2" points="18.73,11.24 17.4,12.04 18.05,12.04 18.57,12.78 18.27,13.23 18.32,13.45 18.86,13.06 19.27,12.3 
		18.73,11.29 19.3,11.29 19.81,11.95 20.86,11.24 	"/>
	<line class="st2" x1="21.84" y1="10.64" x2="22.53" y2="10.22"/>
	<path class="st3" d="M23.82,9.46c0.46-0.39,0.73-0.51,0.89-0.54c0.03-0.01,0.11-0.02,0.14-0.08c0.06-0.11-0.05-0.33-0.21-0.37
		c-0.09-0.03-0.17,0.01-0.33,0.08c-0.22,0.1-0.34,0.2-0.38,0.17c-0.04-0.03,0.04-0.13,0-0.2C23.9,8.44,23.8,8.43,23.7,8.43"/>
	<circle class="st4" cx="16.41" cy="9.21" r="0.18"/>
	<ellipse transform="matrix(0.3732 -0.9277 0.9277 0.3732 2.1104 29.423)" class="st2" cx="22.83" cy="13.15" rx="0.47" ry="0.34"/>
	
		<ellipse transform="matrix(0.7071 -0.7071 0.7071 0.7071 -6.6565 21.3043)" class="st2" cx="22.39" cy="18.69" rx="0.39" ry="0.26"/>
	<ellipse class="st3" cx="23.63" cy="10.09" rx="1.24" ry="0.63"/>
	<ellipse class="st3" cx="21.91" cy="11.19" rx="1.21" ry="0.56"/>
	<polyline class="st2" points="14.06,13.8 13.35,13.45 12.35,13.86 11.84,15.59 12.65,16.66 	"/>
</g>
</svg>
