<?xml version="1.0" encoding="utf-8"?>
<!-- Generator: Adobe Illustrator 24.1.2, SVG Export Plug-In . SVG Version: 6.00 Build 0)  -->
<svg version="1.1" xmlns="http://www.w3.org/2000/svg" xmlns:xlink="http://www.w3.org/1999/xlink" x="0px" y="0px"
	 viewBox="0 0 48 48" style="enable-background:new 0 0 48 48;" xml:space="preserve">
<style type="text/css">
	.st0{display:none;}
	.st1{display:inline;fill:#272D46;}
	.st2{fill:#3A3F55;}
	.st3{fill:none;stroke:#3A3F55;stroke-width:0.25;stroke-miterlimit:10;}
	.st4{fill:none;stroke:#3A3F55;stroke-width:0.1;stroke-miterlimit:10;}
	.st5{fill:none;stroke:#3A3F55;stroke-width:0.15;stroke-miterlimit:10;}
</style>
<g id="Слой_1" class="st0">
	<rect class="st1" width="48.47" height="48.47"/>
</g>
<g id="Слой_2">
	<g>
		<g>
			<path class="st2" d="M9.04,25.1c-1.43-3.45-1.38-8.64,1.16-11.58c3.22-3.73,8.77-1.78,11.72,1.23c2.57,2.63,4.33,6.28,4.89,9.92
				c0.6,3.89-0.1,9.08-4.24,10.78c-4.78,1.97-9.7-2.74-11.91-6.5c-0.09-0.15-0.56,0.01-0.45,0.2c2.16,3.68,5.9,7.1,10.42,6.97
				c4.39-0.12,6.64-4.4,6.83-8.31c0.23-4.64-1.66-9.52-4.79-12.93c-2.75-2.99-7.39-4.98-11.22-2.8c-4.25,2.42-4.59,9.07-2.9,13.15
				C8.63,25.41,9.11,25.27,9.04,25.1L9.04,25.1z"/>
		</g>
	</g>
</g>
<g id="Слой_3">
	<g>
		<g>
			<path class="st2" d="M14.88,10.81c3.16-0.96,6.71,0.76,8.96,2.98c2.04,2.02,3.54,4.78,4.39,7.5c1.52,4.91,1.16,11.3-4.36,13.43
				c-0.31,0.12-0.04,0.38,0.21,0.29c5.87-2.26,6.24-9.09,4.49-14.28c-1.03-3.05-2.87-6.21-5.46-8.17c-2.34-1.77-5.4-2.96-8.31-2.08
				C14.5,10.57,14.59,10.9,14.88,10.81L14.88,10.81z"/>
		</g>
	</g>
</g>
<g id="Слой_4">
	<g>
		<g>
			<path class="st2" d="M10.8,24.26c-0.26-1.85-0.15-4.61,1.98-5.29c1.86-0.6,3.61,0.55,4.78,1.91c1.13,1.31,1.75,2.93,2.11,4.59
				c0.4,1.85,0.04,4.73-2.26,5.09c-0.99,0.15-2.04-0.07-2.91-0.56c-0.79-0.44-1.3-1.34-1.91-1.98c-0.14-0.15-0.6,0.04-0.44,0.21
				c0.66,0.7,1.19,1.63,2.06,2.09c0.84,0.44,1.79,0.66,2.73,0.61c0.99-0.05,1.93-0.42,2.53-1.24c0.6-0.81,0.87-1.95,0.86-2.94
				c-0.03-3.61-3.05-9.21-7.37-8.16c-1.07,0.26-1.97,0.95-2.34,2.01c-0.43,1.21-0.47,2.53-0.29,3.79
				C10.35,24.59,10.83,24.48,10.8,24.26L10.8,24.26z"/>
		</g>
	</g>
</g>
<g id="Слой_5">
	<g>
		<g>
			<path class="st2" d="M12.6,18.86c0.74-0.44,1.59-0.94,2.43-1.17c1-0.28,2.18,0.05,3.04,0.57c1.61,0.98,2.64,2.7,3.26,4.44
				c0.5,1.4,0.76,3.01,0.4,4.48c-0.14,0.58-0.4,1.15-0.79,1.61c-0.6,0.71-1.44,1.02-2.27,1.37c-0.31,0.13-0.03,0.35,0.2,0.25
				c1.18-0.49,2.3-1,2.92-2.17c0.62-1.16,0.68-2.53,0.49-3.81c-0.42-2.86-2.27-6.37-5.34-7.02c-1.73-0.37-3.2,0.4-4.66,1.27
				C12.01,18.84,12.41,18.97,12.6,18.86L12.6,18.86z"/>
		</g>
	</g>
</g>
<g id="Слой_6">
	<path class="st3" d="M11.53,24c-0.01-0.32-0.01-0.78,0.09-1.32c0.12-0.65,0.25-1.36,0.82-1.97c0.44-0.46,0.93-0.64,1.03-0.68
		c0.89-0.31,1.69-0.01,2.03,0.12c0.97,0.36,1.51,1.03,2,1.65c0.35,0.44,1.33,1.69,1.53,3.53c0.05,0.47,0.12,1.14-0.15,1.94
		c-0.13,0.4-0.36,1.07-1.03,1.56c-0.58,0.43-1.18,0.49-1.29,0.5c-0.54,0.04-0.94-0.11-1.29-0.24c-0.51-0.19-0.85-0.43-1.06-0.59
		c-0.39-0.28-0.66-0.57-0.85-0.79"/>
</g>
<g id="Слой_7">
	<path class="st4" d="M12.29,23.71c-0.04-0.38-0.04-0.7-0.03-0.94c0.01-0.25,0.03-0.53,0.12-0.88c0.07-0.26,0.13-0.53,0.32-0.82
		c0.21-0.33,0.45-0.51,0.59-0.62c0.36-0.27,0.71-0.4,0.97-0.47"/>
	<path class="st4" d="M12.65,23.59c-0.01-0.14-0.01-0.33,0-0.56c0.01-0.36,0.02-0.58,0.09-0.85c0.09-0.39,0.25-0.67,0.32-0.79
		c0.08-0.14,0.22-0.36,0.47-0.59c0.09-0.08,0.34-0.29,0.74-0.44c0.52-0.2,0.99-0.16,1.24-0.12"/>
	<path class="st4" d="M13.94,27.41c0.11,0.11,0.27,0.27,0.47,0.44c0.3,0.25,0.63,0.53,1.12,0.74c0.16,0.07,0.39,0.15,0.68,0.21
		c0.13,0.06,0.34,0.14,0.62,0.15c0.44,0.02,0.76-0.14,0.94-0.24c0.15-0.08,0.39-0.22,0.62-0.47"/>
	<path class="st4" d="M14.26,27.15c0.09,0.12,0.23,0.28,0.41,0.44c0.31,0.28,0.6,0.43,0.79,0.53c0.28,0.14,0.5,0.26,0.82,0.32
		c0.2,0.04,0.62,0.12,1.12-0.03c0.1-0.03,0.33-0.11,0.59-0.29c0.22-0.16,0.35-0.32,0.5-0.5c0.12-0.14,0.27-0.35,0.41-0.62"/>
	<path class="st4" d="M13.09,23.41c-0.03-0.19-0.04-0.45,0-0.76c0.07-0.49,0.25-0.84,0.32-0.97c0.12-0.22,0.32-0.57,0.74-0.82
		c0.06-0.04,0.33-0.2,0.74-0.26c0.48-0.08,0.86,0.04,1.03,0.09c0.17,0.05,0.67,0.23,1.29,0.88c0.16,0.17,0.93,0.99,1.35,2.41
		c0.14,0.46,0.4,1.37,0.18,2.38c-0.11,0.52-0.29,0.78-0.44,0.94c-0.3,0.33-0.66,0.46-0.85,0.53c-0.17,0.06-0.48,0.17-0.88,0.15
		c-0.36-0.02-0.62-0.14-0.94-0.29c-0.25-0.12-0.6-0.31-0.97-0.62"/>
</g>
<g id="Слой_8">
	<path class="st3" d="M13.79,23.09c0.05-0.16,0.15-0.4,0.32-0.65c0.12-0.16,0.33-0.46,0.71-0.65c0.56-0.28,1.12-0.13,1.26-0.09
		c0.57,0.16,0.89,0.54,1.18,0.88c0.2,0.24,0.64,0.76,0.79,1.59c0.05,0.24,0.15,0.84-0.09,1.5c-0.15,0.42-0.27,0.74-0.56,0.88
		c-0.11,0.05-0.27,0.09-0.32,0.24c-0.05,0.12,0.03,0.19,0,0.35c-0.03,0.17-0.14,0.28-0.21,0.35c-0.17,0.18-0.37,0.24-0.47,0.26"/>
	<g>
		<g>
			<path class="st2" d="M8.83,25.52c0.68-0.24,1.32-0.58,1.96-0.89c0.83-0.4,1.66-0.75,2.51-1.09c0.37-0.15,0.72-0.32,1.08-0.49
				c0.15-0.07,0.3-0.16,0.47-0.21c0.42-0.11,0.67,0.04,0.94,0.32c0.49,0.5,0.83,1.11,0.86,1.82c0.01,0.3,0.01,0.9-0.29,1.09
				c-0.25,0.17-0.64,0.18-0.93,0.28c-0.54,0.19-1,0.57-1.51,0.84c-1.12,0.58-2.35,0.96-3.47,1.55c-0.51,0.27-0.97,0.45-1.49,0.06
				c-0.28-0.21-0.52-0.48-0.69-0.79C7.83,27.17,7.75,25.89,8.83,25.52c0.32-0.11,0.02-0.23-0.18-0.16
				c-0.32,0.11-0.63,0.29-0.85,0.55c-0.35,0.41-0.35,0.94-0.27,1.44c0.12,0.73,0.57,1.44,1.22,1.8c0.82,0.45,1.6-0.13,2.34-0.45
				c0.65-0.28,1.31-0.53,1.95-0.82c0.71-0.32,1.41-0.66,2.06-1.08c0.36-0.23,0.7-0.31,1.1-0.44c0.24-0.07,0.51-0.14,0.68-0.35
				c0.47-0.58,0.27-1.62-0.05-2.23c-0.44-0.82-1.08-1.4-2.04-1.13c-0.47,0.13-0.89,0.4-1.33,0.59c-0.55,0.24-1.12,0.43-1.67,0.67
				c-1.05,0.47-2.06,1.07-3.15,1.45C8.32,25.47,8.62,25.59,8.83,25.52z"/>
		</g>
	</g>
</g>
<g id="Слой_9">
</g>
<g id="Слой_10">
	<g>
		<g>
			<path class="st2" d="M21.63,17.12c0.12,0.35,0.17,0.82-0.08,1.13c-0.02,0.02-0.1,0.11-0.11,0.1c-0.05-0.04,0.15,0,0.06-0.02
				c-0.03-0.01-0.07-0.01-0.1-0.02c-0.15-0.04-0.29-0.15-0.4-0.26c-0.28-0.29-0.44-0.72-0.43-1.12c0-0.18,0.04-0.37,0.14-0.53
				c0.04-0.06,0.09-0.1,0.13-0.15c0.13-0.15,0.02-0.01,0.02-0.01c0,0.01-0.07,0.01-0.08,0.02c-0.01,0.01-0.03-0.01,0,0
				c0.02,0,0.04,0,0.05,0C21.23,16.34,21.5,16.78,21.63,17.12c0.04,0.11,0.51-0.04,0.48-0.13c-0.14-0.4-0.45-0.84-0.91-0.9
				c-0.25-0.03-0.53,0.03-0.74,0.17c-0.19,0.12-0.3,0.31-0.35,0.52c-0.11,0.49,0.06,1.03,0.39,1.4c0.13,0.15,0.3,0.27,0.5,0.32
				c0.24,0.06,0.51,0,0.73-0.1c0.52-0.26,0.54-0.92,0.37-1.41C22.08,16.89,21.6,17.03,21.63,17.12z"/>
		</g>
	</g>
	<g>
		<g>
			<path class="st2" d="M21.36,32.66c0.11,0.34,0.17,0.81-0.08,1.11c-0.02,0.02-0.04,0.04-0.06,0.06c-0.01,0.01-0.02,0.02-0.02,0.01
				c0,0,0.01,0,0.01,0c-0.03,0.01-0.03,0.01,0,0c-0.01,0-0.04,0-0.01,0c-0.04,0-0.04,0-0.09-0.01c-0.15-0.03-0.27-0.13-0.38-0.24
				c-0.28-0.29-0.44-0.71-0.43-1.11c0-0.17,0.04-0.36,0.14-0.5c0.03-0.05,0.08-0.09,0.12-0.12c0,0,0.01,0,0.01,0
				c-0.04,0,0.03,0,0.01,0c-0.03,0,0.06,0,0.04,0C20.98,31.9,21.25,32.35,21.36,32.66c0.06,0.17,0.54,0.03,0.48-0.13
				c-0.15-0.42-0.47-0.85-0.93-0.93c-0.49-0.08-0.95,0.23-1.06,0.71c-0.2,0.88,0.62,2.23,1.63,1.67c0.51-0.28,0.53-0.96,0.36-1.45
				C21.79,32.37,21.31,32.51,21.36,32.66z"/>
		</g>
	</g>
	<g>
		<g>
			<path class="st2" d="M11.01,20.76c-0.1-0.32-0.31-0.58-0.58-0.76c-0.35-0.24-0.82-0.16-1.14,0.1c-0.26,0.22-0.34,0.52-0.32,0.85
				c0.02,0.38,0.22,0.72,0.42,1.03c0.24,0.37,0.68,0.44,1.09,0.33c0.08-0.02,0.23-0.09,0.21-0.2c-0.03-0.11-0.21-0.09-0.28-0.07
				c-0.02,0.01-0.04,0.01-0.06,0.02c0.04-0.01-0.05,0.01-0.06,0.01c-0.06,0-0.13,0-0.18-0.03C10,22,9.92,21.92,9.86,21.82
				c-0.16-0.23-0.32-0.5-0.38-0.78c-0.06-0.25-0.06-0.55,0.11-0.76c-0.02,0.02,0.02-0.02,0.02-0.02c0.02-0.02,0.03-0.03,0.05-0.05
				c0.03-0.03,0.06-0.05,0.11-0.07c-0.01,0,0.06,0,0.08,0.01c0.07,0.01,0.13,0.05,0.18,0.08c0.23,0.15,0.41,0.39,0.49,0.65
				C10.58,21.07,11.06,20.94,11.01,20.76L11.01,20.76z"/>
		</g>
	</g>
</g>
<g id="Слой_11">
	<line class="st3" x1="12.5" y1="11.76" x2="25.16" y2="6.46"/>
</g>
<g id="Слой_12">
	<g>
		<g>
			<path class="st2" d="M31.66,31.09c-1.76,0.87-3.52,1.73-5.28,2.6c-0.25,0.12-0.5,0.25-0.75,0.37c-0.28,0.14,0.17,0.11,0.28,0.06
				c1.76-0.87,3.52-1.73,5.28-2.6c0.25-0.12,0.5-0.25,0.75-0.37C32.22,31.01,31.77,31.04,31.66,31.09L31.66,31.09z"/>
		</g>
	</g>
</g>
<g id="Слой_13">
	<g>
		<g>
			<path class="st2" d="M25.12,6.57c1.3-0.14,2.64-0.16,3.92,0.12c1.43,0.32,2.72,1.16,3.9,2.02c2.09,1.53,3.66,3.67,4.65,6.05
				c2,4.77,1.79,10.52-2.12,14.25c-0.19,0.19,0.28,0.15,0.38,0.06c4.11-3.92,4.26-9.91,2.04-14.87c-1.17-2.61-3.05-4.78-5.46-6.31
				c-2.3-1.45-4.54-1.84-7.23-1.55C24.98,6.36,24.79,6.61,25.12,6.57L25.12,6.57z"/>
		</g>
	</g>
</g>
<g id="Слой_14">
	<g>
		<g>
			<path class="st2" d="M36.62,31.42c0.05-0.16,0.01-0.32-0.04-0.48c-0.11-0.31-0.24-0.6-0.34-0.91c-0.16-0.48-0.32-0.98-0.59-1.41
				c-0.21-0.34-0.63-0.35-0.99-0.3c-0.65,0.08-1.26,0.28-1.86,0.54c-0.51,0.22-1.09,0.6-1.31,1.13c-0.1,0.25-0.14,0.54-0.07,0.8
				c0.07,0.23,0.24,0.43,0.35,0.64c0.25,0.46,0.4,0.98,0.67,1.43c0.23,0.39,0.77,0.38,1.16,0.29c0.32-0.08,0.62-0.24,0.91-0.37
				c0.22-0.09,0.44-0.18,0.66-0.27c0.27-0.12,0.55-0.25,0.8-0.42c0.24-0.16,0.52-0.35,0.63-0.63c0.1-0.23-0.39-0.19-0.45-0.03
				c-0.17,0.4-0.74,0.64-1.11,0.81c-0.37,0.17-0.76,0.32-1.14,0.49c-0.28,0.12-0.75,0.31-0.98,0c-0.1-0.14-0.16-0.33-0.23-0.49
				c-0.11-0.26-0.23-0.52-0.35-0.77c-0.19-0.38-0.52-0.71-0.47-1.16c0.05-0.51,0.45-0.87,0.88-1.11c0.44-0.25,0.98-0.44,1.48-0.53
				c0.34-0.06,0.76-0.18,0.96,0.13c0.25,0.4,0.4,0.88,0.55,1.33c0.1,0.29,0.21,0.57,0.32,0.86c0.06,0.16,0.13,0.31,0.07,0.48
				C36.08,31.65,36.57,31.59,36.62,31.42z"/>
		</g>
	</g>
</g>
<g id="Слой_15">
	<g>
		<g>
			<path class="st2" d="M35.73,32.06c1.19,2.3,2.37,4.59,3.56,6.89c0.17,0.32,0.33,0.64,0.5,0.96c0.07,0.14,0.54-0.03,0.48-0.13
				c-1.19-2.3-2.37-4.59-3.56-6.89c-0.17-0.32-0.33-0.64-0.5-0.96C36.14,31.8,35.68,31.96,35.73,32.06L35.73,32.06z"/>
		</g>
	</g>
	<g>
		<g>
			<path class="st2" d="M33.35,33.06c1.29,2.45,2.57,4.91,3.86,7.36c0.18,0.35,0.37,0.7,0.55,1.05c0.06,0.12,0.52-0.05,0.48-0.13
				c-1.29-2.45-2.57-4.91-3.86-7.36c-0.18-0.35-0.37-0.7-0.55-1.05C33.77,32.82,33.31,32.99,33.35,33.06L33.35,33.06z"/>
		</g>
	</g>
</g>
<g id="Слой_16">
	<g>
		<g>
			<path class="st2" d="M31.28,22.63c0,0.39-0.11,0.94-0.48,1.16c-0.1,0.06-0.2,0.06-0.32-0.01c-0.17-0.09-0.3-0.25-0.39-0.43
				c-0.21-0.43-0.23-0.96-0.07-1.41c0.06-0.18,0.16-0.36,0.31-0.48c0.11-0.09,0.2-0.11,0.34-0.06
				C31.11,21.57,31.27,22.2,31.28,22.63c0,0.22,0.49,0.13,0.49-0.05c-0.01-0.53-0.19-1.18-0.71-1.42c-0.52-0.23-1.09,0.05-1.37,0.5
				c-0.31,0.51-0.34,1.21-0.11,1.75c0.22,0.5,0.68,0.84,1.24,0.68c0.65-0.18,0.95-0.89,0.95-1.52
				C31.77,22.35,31.28,22.44,31.28,22.63z"/>
		</g>
	</g>
</g>
<g id="Слой_17">
</g>
<g id="Слой_18">
	<g>
		<g>
			<path class="st2" d="M26.75,6.48c1.97,0.3,3.84,1.21,5.38,2.47c0.86,0.7,1.65,1.55,2.28,2.46c0.13,0.19,0.26,0.38,0.4,0.57
				c0.35,0.5,0.23,0.69-0.26,1c-0.9,0.58-2.01,1.04-3.01,1.44c-0.41,0.17-0.81,0.36-1.21,0.54c-0.55,0.25-1.24,0.67-1.84,0.65
				c-0.5-0.01-0.55-0.28-0.82-0.64c-0.17-0.23-0.36-0.44-0.53-0.66c-0.25-0.33-0.5-0.64-0.8-0.93c-0.87-0.85-1.84-1.64-2.85-2.31
				c-1.82-1.21-4.01-1.58-6.16-1.53c-0.1,0-0.54,0.19-0.32,0.18c2.58-0.06,4.82,0.59,6.88,2.13c1.07,0.8,2.02,1.65,2.85,2.7
				c0.51,0.65,0.84,1.5,1.78,1.33c1.06-0.2,2.05-0.89,3.04-1.3c1.02-0.42,1.99-0.93,2.99-1.39c0.85-0.4,1.33-0.53,0.69-1.42
				c-0.48-0.67-0.95-1.33-1.52-1.94c-1.71-1.83-4.06-3.15-6.55-3.54C27.04,6.28,26.63,6.46,26.75,6.48L26.75,6.48z"/>
		</g>
	</g>
</g>
<g id="Слой_19">
	<path class="st5" d="M11.54,24.15c0.01-0.07,0.02-0.14,0.03-0.22"/>
</g>
<g id="Слой_20">
</g>
</svg>
