<?xml version="1.0"?>
<svg xmlns="http://www.w3.org/2000/svg" id="Capa_1" enable-background="new 0 0 512 512" height="512px" viewBox="0 0 512 512" width="512px"><g><g><path d="m497 121h-46v-75c0-8.284-6.716-15-15-15h-180c-8.284 0-15 6.716-15 15v75h-32.58c-6.192-17.458-22.865-30-42.42-30h-61c-19.555 0-36.228 12.542-42.42 30h-47.58c-8.284 0-15 6.716-15 15v300c0 8.284 6.716 15 15 15h47.58c6.192 17.458 22.865 30 42.42 30h61c19.555 0 36.228-12.542 42.42-30h288.58c8.284 0 15-6.716 15-15v-300c0-8.284-6.716-15-15-15zm-226-60h150v120h-150zm-241 90h30v270h-30zm136 300h-61c-8.271 0-15-6.729-15-15v-300c0-8.271 6.729-15 15-15h61c8.271 0 15 6.729 15 15v300c0 8.271-6.729 15-15 15zm316-30h-271v-270h30v45c0 8.284 6.716 15 15 15h180c8.284 0 15-6.716 15-15v-45h31z" data-original="#000000" class="active-path" data-old_color="#000000" fill="#313653"/><circle cx="286" cy="256" r="15" data-original="#000000" class="active-path" data-old_color="#000000" fill="#313653"/><circle cx="286" cy="316" r="15" data-original="#000000" class="active-path" data-old_color="#000000" fill="#313653"/><ellipse cx="346" cy="316" rx="15" ry="15" transform="matrix(.383 -.924 .924 .383 -78.355 514.735)" data-original="#000000" class="active-path" data-old_color="#000000" fill="#313653"/><ellipse cx="346" cy="256" rx="15" ry="15" transform="matrix(.383 -.924 .924 .383 -22.922 477.696)" data-original="#000000" class="active-path" data-old_color="#000000" fill="#313653"/><circle cx="406" cy="256" r="15" data-original="#000000" class="active-path" data-old_color="#000000" fill="#313653"/><circle cx="406" cy="316" r="15" data-original="#000000" class="active-path" data-old_color="#000000" fill="#313653"/><circle cx="286" cy="376" r="15" data-original="#000000" class="active-path" data-old_color="#000000" fill="#313653"/><ellipse cx="346" cy="376" rx="15" ry="15" transform="matrix(.383 -.924 .924 .383 -133.787 551.774)" data-original="#000000" class="active-path" data-old_color="#000000" fill="#313653"/><circle cx="406" cy="376" r="15" data-original="#000000" class="active-path" data-old_color="#000000" fill="#313653"/></g></g> </svg>
