<?xml version="1.0" encoding="utf-8"?>
<!-- Generator: Adobe Illustrator 24.1.2, SVG Export Plug-In . SVG Version: 6.00 Build 0)  -->
<svg version="1.1" xmlns="http://www.w3.org/2000/svg" xmlns:xlink="http://www.w3.org/1999/xlink" x="0px" y="0px"
	 viewBox="0 0 48 48" style="enable-background:new 0 0 48 48;" xml:space="preserve">
<style type="text/css">
	.st0{display:none;}
	.st1{display:inline;fill:#272D46;}
	.st2{display:inline;fill:none;stroke:#FFFFFF;stroke-width:0.5;stroke-linejoin:round;stroke-miterlimit:10;}
	.st3{display:inline;fill:none;stroke:#FFFFFF;stroke-width:0.25;stroke-miterlimit:10;}
	.st4{fill:none;stroke:#3A3F55;stroke-width:0.5;stroke-miterlimit:10;}
	.st5{fill:none;stroke:#3A3F55;stroke-width:0.25;stroke-miterlimit:10;}
	.st6{fill:none;stroke:#3A3F55;stroke-width:0.5;stroke-linejoin:round;stroke-miterlimit:10;}
	.st7{fill:#FFFFFF;stroke:#3A3F55;stroke-miterlimit:10;}
	.st8{display:inline;fill:none;stroke:#FFFFFF;stroke-width:0.15;stroke-linejoin:round;stroke-miterlimit:10;}
	.st9{fill:none;stroke:#3A3F55;stroke-width:0.25;stroke-linejoin:round;stroke-miterlimit:10;}
	.st10{fill:none;stroke:#3A3F55;stroke-width:0.1;stroke-linejoin:round;stroke-miterlimit:10;}
</style>
<g id="Слой_1" class="st0">
	<rect class="st1" width="48.47" height="48.47"/>
	<polygon class="st2" points="19.87,9.18 29.97,9.18 29.97,28.56 19.87,28.03 	"/>
	<path class="st3" d="M26.2,17.49c0.06-0.03,0.14-0.06,0.24-0.1c0.1-0.03,0.18-0.06,0.29-0.08c0.18-0.02,0.33,0.01,0.4,0.03
		c0.26,0.07,0.43,0.22,0.46,0.25c0.17,0.16,0.24,0.33,0.29,0.45c0.06,0.14,0.16,0.42,0.08,0.75c-0.01,0.06-0.08,0.28-0.28,0.49
		c-0.18,0.19-0.38,0.26-0.46,0.29c-0.17,0.06-0.32,0.07-0.38,0.07c-0.14,0-0.25-0.02-0.33-0.04"/>
</g>
<g id="Слой_2">
	<polygon class="st4" points="11.41,7.94 32.35,7.65 32.35,30 11.41,28.94 	"/>
</g>
<g id="Слой_3">
	<polygon class="st5" points="32.56,30.15 32.56,32.35 11.56,30.94 11.5,29.03 	"/>
</g>
<g id="Слой_4">
	<polygon class="st4" points="11.56,30.88 11.29,31.06 11.29,41.24 32.35,43.35 32.76,42.82 32.76,30.32 32.62,30 32.56,32.24 	"/>
</g>
<g id="Слой_5">
	<polyline class="st4" points="32.82,42.76 37.62,39 38.12,40.38 38.26,7.03 38.03,7.03 37.76,8.71 32.49,7.82 	"/>
</g>
<g id="Слой_6">
	<polyline class="st4" points="38.09,7.07 20.4,7.07 20.11,7.25 19.87,7.82 	"/>
</g>
<g id="Слой_7">
	<polygon class="st5" points="18.06,7.82 17.9,29.31 18.54,29.31 18.72,7.82 	"/>
	<polygon class="st4" points="17.9,31.32 18.72,31.47 18.72,41.94 17.9,41.94 	"/>
</g>
<g id="Слой_8">
	<line class="st4" x1="38.26" y1="41.39" x2="34.61" y2="41.29"/>
</g>
<g id="Слой_9">
</g>
<g id="Слой_10">
</g>
<g id="Слой_11">
	<polygon class="st6" points="20.65,11.62 28.82,11.62 28.71,26.13 20.65,25.78 	"/>
</g>
<g id="Слой_12">
	<polygon class="st7" points="21.88,14.44 27.53,14.53 27.53,16.19 21.88,16.12 	"/>
</g>
<g id="Слой_13" class="st0">
	<polygon class="st8" points="21.08,11.99 28.38,12.07 28.34,25.65 21.08,25.29 	"/>
</g>
<g id="Слой_14">
	<path class="st9" d="M34.29,8.11c-0.06-0.09-0.01-0.21,0-0.24c0.04-0.1,0.09-0.1,0.15-0.22c0.07-0.13,0.04-0.17,0.11-0.26
		c0.02-0.03,0.08-0.11,0.19-0.15c0.1-0.03,0.26-0.03,0.34,0.06c0.08,0.08,0.02,0.17,0.12,0.29c0.06,0.08,0.09,0.06,0.15,0.13
		c0.08,0.11,0.08,0.25,0.07,0.37c0,0.12,0,0.18-0.03,0.21c-0.06,0.05-0.14,0-0.37-0.03c-0.19-0.03-0.22-0.01-0.44-0.04
		C34.36,8.18,34.32,8.15,34.29,8.11z"/>
	<path class="st9" d="M23.82,7.74c0.01-0.02-0.02-0.03-0.06-0.12c-0.05-0.09-0.03-0.11-0.07-0.16c-0.03-0.04-0.07-0.06-0.12-0.09
		C23.5,7.33,23.46,7.3,23.4,7.31c-0.08,0.01-0.14,0.08-0.16,0.1c-0.05,0.07-0.09,0.16-0.09,0.16c-0.12,0.1-0.12,0.12-0.12,0.12
		c0,0.02,0.04,0.03,0.18,0.04c0.14,0.01,0.21,0.01,0.34,0.01C23.73,7.76,23.81,7.77,23.82,7.74z"/>
</g>
<g id="Слой_15">
	<circle class="st10" cx="30.7" cy="8.71" r="0.39"/>
	<circle class="st10" cx="12.39" cy="8.86" r="0.39"/>
	<circle class="st10" cx="12.37" cy="30" r="0.39"/>
	<circle class="st10" cx="31.08" cy="31.08" r="0.39"/>
	<circle class="st10" cx="31.45" cy="42.08" r="0.39"/>
	<circle class="st10" cx="12.21" cy="40.35" r="0.39"/>
</g>
<g id="Слой_16">
	<circle class="st5" cx="26.5" cy="18.49" r="0.97"/>
</g>
<g id="Слой_17">
</g>
<g id="Слой_18">
</g>
<g id="Слой_19">
	
		<rect x="21.5" y="20.21" transform="matrix(0.9994 0.0355 -0.0355 0.9994 0.7534 -0.7823)" class="st9" width="1.84" height="1.26"/>
	
		<rect x="23.77" y="20.29" transform="matrix(0.9994 0.0355 -0.0355 0.9994 0.7577 -0.8628)" class="st9" width="1.84" height="1.26"/>
	
		<rect x="26.01" y="20.37" transform="matrix(0.9994 0.0355 -0.0355 0.9994 0.7619 -0.9423)" class="st9" width="1.84" height="1.26"/>
</g>
<g id="Слой_20">
	
		<rect x="21.44" y="23.68" transform="matrix(0.9994 0.0355 -0.0355 0.9994 0.8782 -0.7973)" class="st9" width="2.93" height="1.34"/>
	
		<rect x="24.93" y="23.8" transform="matrix(0.9994 0.0355 -0.0355 0.9994 0.8847 -0.9208)" class="st9" width="2.93" height="1.34"/>
</g>
<g id="Слой_21">
	<polygon class="st4" points="34.18,34.35 35.38,33.56 35.38,39.21 34.26,40.21 	"/>
</g>
<g id="Слой_22">
</g>
<g id="Слой_23">
</g>
<g id="Слой_24">
</g>
<g id="Слой_25">
</g>
<g id="Слой_26">
</g>
<g id="Слой_27">
</g>
</svg>
