<?xml version="1.0" encoding="utf-8"?>
<!-- Generator: Adobe Illustrator 24.1.2, SVG Export Plug-In . SVG Version: 6.00 Build 0)  -->
<svg version="1.1" xmlns="http://www.w3.org/2000/svg" xmlns:xlink="http://www.w3.org/1999/xlink" x="0px" y="0px"
	 viewBox="0 0 32 32" style="enable-background:new 0 0 32 32;" xml:space="preserve">
<style type="text/css">
	.st0{display:none;}
	.st1{display:inline;fill:#22273E;}
	.st2{fill:none;stroke:#3A3F55;stroke-width:0.15;stroke-miterlimit:10;}
	.st3{fill:none;stroke:#3A3F55;stroke-width:0.25;stroke-miterlimit:10;}
	.st4{fill:none;stroke:#3A3F55;stroke-width:0.1;stroke-miterlimit:10;}
</style>
<g id="Слой_8">
</g>
<g id="Слой_2" class="st0">
	<rect class="st1" width="32" height="32"/>
</g>
<g id="Слой_3">
	<ellipse transform="matrix(0.9789 -0.2043 0.2043 0.9789 -2.9655 0.9697)" class="st2" cx="3.21" cy="14.85" rx="0.25" ry="0.43"/>
	<ellipse transform="matrix(0.9789 -0.2043 0.2043 0.9789 -3.2276 2.1644)" class="st2" cx="8.87" cy="16.71" rx="0.25" ry="0.43"/>
	<ellipse transform="matrix(0.9789 -0.2043 0.2043 0.9789 -4.6686 1.1881)" class="st2" cx="3.42" cy="23.21" rx="0.25" ry="0.43"/>
	<ellipse transform="matrix(0.9789 -0.2043 0.2043 0.9789 -5.0299 2.3192)" class="st2" cx="8.72" cy="25.52" rx="0.25" ry="0.43"/>
	<line class="st3" x1="7.96" y1="17.85" x2="7.96" y2="23.63"/>
</g>
<g id="Слой_4">
	<polygon class="st2" points="20.13,8.27 22.48,7.65 25.29,8.35 25.98,9.48 23.98,10.04 22.21,10.04 19.58,9.5 19.4,9 	"/>
</g>
<g id="Слой_5">
	<polyline class="st2" points="19.6,9.42 20.1,8.25 22.92,8.94 22.23,9.98 23.15,10.31 23.88,10.1 23.08,8.94 25.31,8.4 	"/>
</g>
<g id="Слой_6">
	<polyline class="st2" points="25.81,9.19 26.58,9.38 26.58,9.94 23.19,10.94 18.6,9.75 18.6,9.19 19.35,9.08 	"/>
</g>
<g id="Слой_7">
	<polyline class="st3" points="23.13,10.97 23.02,13.38 26.44,12.33 26.6,9.9 	"/>
</g>
<g id="Слой_9">
	<polyline class="st3" points="26.65,9.98 28.33,10.44 29.38,12.17 28.92,17 27.44,18.08 26.65,18.46 26.38,18.35 26,18.63 
		23,19.94 22.59,19.94 22.59,19.63 22.3,19.72 21.97,19.72 21.97,19.38 21.64,19.48 21.27,19.52 21,19.45 	"/>
</g>
<g id="Слой_10">
	<polyline class="st3" points="19.22,21.08 19.16,22.98 17.39,23.73 17.39,24.47 16.11,25.06 15.05,24.92 14.96,24.81 12.18,26.02 
		12.18,26.8 10.32,27.65 10.12,27.49 9.98,27.55 3.56,24.74 2.94,24.15 2.86,21.87 3.44,21.65 	"/>
</g>
<g id="Слой_11">
	<polyline class="st2" points="16.3,11.78 15.2,12.11 14.91,11.95 14.4,11.95 12.5,12.42 10.2,11.94 7.7,12.59 7.13,12.53 
		6.06,12.8 6.06,13.27 5.65,13.41 3.81,13.09 3.29,13.18 2.73,13.5 2.79,15.45 3.43,16.28 4.19,16.63 4.35,16.89 4.36,17.72 
		4.43,21.27 4.41,21.65 4.33,21.95 4.32,23.39 4.33,24.94 	"/>
</g>
<g id="Слой_12">
	<polyline class="st2" points="4.25,16.63 4.25,13.54 4.79,13.38 8.46,14.58 7.88,14.73 7.88,17.85 8.73,18.19 9.48,17.88 
		10.04,17.68 10.13,15.66 10.04,15.45 9.54,14.92 7.6,13.82 5.64,13.45 	"/>
</g>
<g id="Слой_13">
	<polyline class="st3" points="9.55,14.88 11.14,14.42 11.42,14.42 12.27,14.73 12.27,16 10.56,17.42 9.64,18 	"/>
</g>
<g id="Слой_14">
	<polyline class="st3" points="13.14,14.25 15.56,13.67 16.63,16 19.47,15.05 19.28,14.84 16.56,13.67 17.13,12.28 15.72,12.66 
		15.13,12.28 	"/>
</g>
<g id="Слой_15">
	<polyline class="st3" points="19.4,14.84 19.6,15.28 19.3,16.47 19.08,17.5 19.34,17.89 19.22,18.95 18.67,20.13 17.09,20.72 
		17.09,23.38 16.42,23.11 15.38,23.63 15.45,21.48 15.59,21.28 16.95,20.8 	"/>
</g>
<g id="Слой_16">
	<polyline class="st3" points="9.64,23.78 10.13,24.44 10.05,26.75 10.23,26.98 12.11,26.11 	"/>
</g>
<g id="Слой_17">
	<path class="st3" d="M3.38,16.36c-0.03,0.13-0.06,0.31-0.09,0.52c-0.01,0.08-0.05,0.35-0.06,0.72c-0.02,0.53,0.03,0.5,0.02,1.05
		c0,0.1-0.01,0.22,0.02,0.38c0.03,0.17,0.07,0.26,0.14,0.47c0.08,0.23,0.13,0.38,0.17,0.58c0.02,0.1,0.07,0.36,0.06,0.67
		c0,0.11-0.01,0.24-0.02,0.5c0,0.07,0.01,0.11,0,0.17c-0.02,0.17-0.11,0.29-0.19,0.38"/>
</g>
<g id="Слой_18">
</g>
<g id="Слой_19">
	<path class="st2" d="M12.38,14.67c0.1-0.04,0.25-0.1,0.44-0.14c0.22-0.05,0.5-0.12,0.83-0.09c0.53,0.05,0.91,0.33,1.08,0.47
		c0.28,0.22,0.44,0.45,0.55,0.61c0.23,0.35,0.34,0.65,0.42,0.91c0.04,0.12,0.15,0.47,0.2,0.95c0.01,0.13,0.05,0.52,0,1.05
		c-0.03,0.27-0.06,0.44-0.14,0.8c-0.16,0.75-0.24,1.12-0.39,1.3c-0.04,0.04-0.13,0.14-0.13,0.27c0,0.1,0.06,0.15,0.11,0.28
		c0.04,0.11,0.05,0.18,0.06,0.34c0.08,0.92-0.2,1.58-0.2,1.58c-0.17,0.39-0.38,0.64-0.47,0.73c-0.15,0.16-0.31,0.34-0.59,0.45
		c-0.15,0.06-0.4,0.16-0.66,0.06c-0.05-0.02-0.26-0.1-0.36-0.3c-0.05-0.1-0.06-0.19-0.16-0.28c-0.03-0.02-0.08-0.07-0.16-0.08
		c-0.11-0.01-0.18,0.06-0.3,0.13c-0.09,0.05-0.18,0.07-0.38,0.11c-0.52,0.11-0.98,0-0.98,0c-0.16-0.04-0.47-0.13-0.78-0.38
		c-0.3-0.23-0.45-0.48-0.61-0.75c-0.25-0.42-0.36-0.79-0.39-0.92c-0.09-0.35-0.1-0.62-0.11-0.94c0-0.12,0.01-0.43,0.05-1.06
		c0.03-0.58,0.04-0.65,0.08-0.77c0.05-0.16,0.13-0.3,0.17-0.56c0.02-0.12-0.05-0.26,0.03-0.34c0.04-0.05,0.1-0.06,0.15-0.07"/>
</g>
<g id="Слой_20">
	<path class="st3" d="M10.65,19.51c0.06-0.34,0.14-0.6,0.18-0.73c0.06-0.18,0.15-0.46,0.32-0.8c0.21-0.41,0.43-0.68,0.47-0.74
		c0.15-0.19,0.34-0.42,0.66-0.65c0.22-0.15,0.48-0.34,0.88-0.39c0.13-0.02,0.43-0.05,0.76,0.09c0.31,0.13,0.48,0.35,0.56,0.46
		c0.25,0.33,0.31,0.65,0.38,1c0.09,0.49,0.06,0.87,0.04,1.09c-0.01,0.11-0.06,0.57-0.26,1.14c-0.07,0.2-0.19,0.53-0.44,0.92
		c-0.13,0.2-0.31,0.45-0.56,0.71c-0.19,0.19-0.36,0.36-0.62,0.51c-0.21,0.12-0.49,0.28-0.88,0.26c-0.36-0.01-0.61-0.17-0.72-0.24
		c-0.28-0.18-0.43-0.4-0.48-0.47c-0.11-0.17-0.15-0.31-0.22-0.56c-0.06-0.2-0.13-0.45-0.14-0.79
		C10.55,20.03,10.59,19.83,10.65,19.51z"/>
	<path class="st2" d="M11.39,20.11c-0.01-0.3-0.02-0.58,0.06-0.94c0.05-0.24,0.12-0.56,0.33-0.92c0.09-0.16,0.29-0.48,0.68-0.74
		c0.19-0.12,0.38-0.25,0.66-0.26c0.36-0.01,0.62,0.17,0.68,0.22c0.34,0.26,0.41,0.66,0.46,0.91c0.07,0.41-0.01,0.74-0.08,1.05
		c-0.12,0.5-0.33,0.84-0.38,0.92c-0.12,0.19-0.29,0.46-0.61,0.69c-0.19,0.14-0.41,0.3-0.74,0.32c-0.09,0-0.35,0.01-0.6-0.15
		c-0.24-0.16-0.33-0.39-0.38-0.51C11.44,20.62,11.4,20.49,11.39,20.11z"/>
	<path class="st2" d="M12.12,19.79c-0.01-0.11-0.02-0.3,0.04-0.55c0.03-0.14,0.08-0.36,0.25-0.6c0.03-0.05,0.19-0.26,0.46-0.41
		c0.14-0.08,0.21-0.08,0.26-0.08c0.16,0.01,0.27,0.12,0.33,0.18c0.2,0.2,0.23,0.46,0.25,0.56c0.02,0.21-0.02,0.36-0.08,0.61
		c-0.06,0.22-0.1,0.39-0.24,0.58c-0.08,0.11-0.2,0.29-0.44,0.38c-0.09,0.03-0.31,0.12-0.51,0.01c-0.16-0.09-0.22-0.25-0.26-0.34
		C12.13,20.01,12.13,19.92,12.12,19.79z"/>
</g>
<g id="Слой_21">
	<path class="st2" d="M14.06,21.25c0.13-0.08,0.24-0.1,0.27-0.11c0.07-0.01,0.2-0.04,0.33,0.01c0.2,0.08,0.28,0.28,0.32,0.39
		c0.1,0.25,0.06,0.47,0.04,0.67c-0.03,0.17-0.07,0.3-0.12,0.45c-0.07,0.2-0.11,0.33-0.21,0.48c-0.14,0.21-0.3,0.33-0.38,0.39
		c-0.11,0.08-0.21,0.15-0.36,0.16c-0.05,0.01-0.19,0.02-0.33-0.05c-0.15-0.07-0.22-0.2-0.26-0.26c-0.07-0.12-0.08-0.22-0.09-0.32
		c-0.01-0.11-0.01-0.18,0-0.34c0.01-0.13,0.01-0.23,0.05-0.36c0.03-0.11,0.06-0.18,0.08-0.25c0.03-0.07,0.07-0.17,0.13-0.27
		C13.61,21.69,13.76,21.42,14.06,21.25z"/>
</g>
<g id="Слой_22">
	
		<ellipse transform="matrix(0.4156 -0.9096 0.9096 0.4156 -5.6396 21.5019)" class="st2" cx="13.91" cy="15.14" rx="0.3" ry="0.19"/>
	
		<ellipse transform="matrix(0.3083 -0.9513 0.9513 0.3083 -5.4114 26.2202)" class="st2" cx="15.32" cy="16.83" rx="0.3" ry="0.19"/>
	
		<ellipse transform="matrix(0.3083 -0.9513 0.9513 0.3083 -8.2705 28.1942)" class="st2" cx="15.25" cy="19.78" rx="0.3" ry="0.19"/>
	
		<ellipse transform="matrix(0.3083 -0.9513 0.9513 0.3083 -10.8536 22.3163)" class="st2" cx="9.92" cy="18.62" rx="0.3" ry="0.19"/>
	
		<ellipse transform="matrix(0.3083 -0.9513 0.9513 0.3083 -14.2072 27.0217)" class="st2" cx="11.48" cy="23.28" rx="0.3" ry="0.19"/>
	
		<ellipse transform="matrix(0.2144 -0.9767 0.9767 0.2144 -13.4953 26.8099)" class="st2" cx="9.92" cy="21.79" rx="0.3" ry="0.19"/>
</g>
<g id="Слой_23">
	<path class="st3" d="M16.3,11.78c0.15-0.01,0.35-0.01,0.59,0c0.23,0.01,0.59,0.04,1,0.16c0.52,0.15,0.87,0.4,1.17,0.61
		c0.45,0.31,0.74,0.62,0.86,0.75c0.07,0.08,0.4,0.44,0.72,1.02c0.08,0.15,0.42,0.77,0.63,1.66c0.07,0.29,0.18,0.78,0.17,1.44
		c0,0.31-0.01,0.74-0.17,1.28c-0.12,0.4-0.27,0.68-0.36,0.84c-0.12,0.23-0.25,0.46-0.48,0.72c-0.23,0.26-0.47,0.41-0.63,0.52
		c-0.19,0.13-0.37,0.22-0.5,0.28"/>
</g>
<g id="Слой_24">
	<path class="st2" d="M18.53,12.06c0.12-0.07,0.3-0.16,0.52-0.23c0.19-0.07,0.47-0.17,0.84-0.19c0.09-0.01,0.46-0.02,0.92,0.11
		c0.4,0.11,0.67,0.28,0.81,0.38c0.34,0.21,0.55,0.43,0.75,0.64c0.24,0.25,0.42,0.48,0.55,0.66"/>
</g>
<g id="Слой_25">
	<path class="st2" d="M19.2,11.86c0.11-0.03,0.27-0.06,0.47-0.06c0.24,0,0.42,0.04,0.58,0.08c0.41,0.1,0.71,0.26,0.81,0.31
		c0.35,0.19,0.57,0.4,0.75,0.56c0.19,0.17,0.42,0.43,0.66,0.77"/>
</g>
<g id="Слой_26">
	<path class="st2" d="M19.44,12.67c0.18,0.06,0.42,0.17,0.69,0.34c0.43,0.29,0.68,0.61,0.84,0.83c0.36,0.48,0.53,0.91,0.63,1.17
		c0.09,0.24,0.24,0.66,0.3,1.23c0.03,0.34,0.07,0.87-0.14,1.5c-0.08,0.23-0.18,0.42-0.25,0.55"/>
</g>
<g id="Слой_27">
	<path class="st2" d="M22.31,13.59c0.09,0.13,0.2,0.31,0.31,0.53c0.06,0.12,0.25,0.52,0.38,1.09c0.06,0.3,0.2,0.97,0.06,1.81
		c-0.04,0.26-0.11,0.63-0.33,1.06c-0.17,0.33-0.35,0.55-0.5,0.72c-0.22,0.25-0.34,0.4-0.56,0.48c-0.23,0.09-0.45,0.08-0.58,0.06"/>
</g>
<g id="Слой_28">
	<ellipse transform="matrix(0.23 -0.9732 0.9732 0.23 6.8626 32.3774)" class="st3" cx="23.89" cy="11.85" rx="0.65" ry="0.38"/>
	<ellipse transform="matrix(0.23 -0.9732 0.9732 0.23 8.3923 33.4159)" class="st3" cx="25.31" cy="11.4" rx="0.65" ry="0.38"/>
</g>
<g id="Слой_29">
	<polyline class="st3" points="26.67,10.45 27.39,10.64 28.53,12.44 28.05,17.5 	"/>
	<polyline class="st3" points="22.47,13.67 23.56,13.97 23.12,19.35 22.11,19.08 	"/>
	<polyline class="st3" points="23.3,13.42 24.22,13.67 23.76,19.13 23.22,19.52 	"/>
	<line class="st3" x1="18.58" y1="9.9" x2="18.44" y2="12.04"/>
</g>
<g id="Слой_32">
	<polyline class="st3" points="7.96,14.78 8.88,15.14 9.47,15.72 9.47,17.81 	"/>
	<line class="st2" x1="4.25" y1="13.54" x2="3.42" y2="13.25"/>
	
		<ellipse transform="matrix(0.2593 -0.9658 0.9658 0.2593 -7.9779 34.066)" class="st2" cx="18.22" cy="22.23" rx="0.58" ry="0.36"/>
</g>
<g id="Слой_30">
	<path class="st4" d="M24.31,13.8c0.1,0.01,0.25,0.01,0.42-0.02c0.27-0.04,0.45-0.13,0.67-0.22c0.2-0.08-0.03,0.02,0.92-0.34
		c0.77-0.3,0.77-0.31,0.91-0.33c0.08-0.01,0.26-0.03,0.48-0.13c0.14-0.06,0.36-0.15,0.36-0.27c0-0.1-0.15-0.18-0.23-0.22
		c-0.1-0.05-0.2-0.07-0.27-0.08"/>
	<polygon class="st4" points="27.06,16.51 25.13,17.29 25.31,15.31 27.17,14.77 	"/>
</g>
<g id="Слой_34">
</g>
<g id="Слой_33">
	<path class="st2" d="M17.29,12.25c0.17,0.06,0.39,0.16,0.65,0.31c0.5,0.31,0.8,0.65,1.06,0.96c0.13,0.15,0.52,0.62,0.88,1.33
		c0.08,0.16,0.36,0.73,0.56,1.54c0.1,0.41,0.2,0.8,0.21,1.35c0,0.19,0,0.77-0.21,1.48c-0.09,0.31-0.21,0.71-0.52,1.15
		c-0.1,0.14-0.18,0.24-0.25,0.31"/>
</g>
<g id="Слой_31">
	<polygon class="st2" points="7.88,23.63 7.88,26.44 9.38,26.98 9.47,24.72 8.91,24.02 	"/>
	<polyline class="st2" points="15.17,12.25 13.31,12.68 15.74,13.59 	"/>
	<line class="st3" x1="11.16" y1="15.61" x2="10.09" y2="16.52"/>
	<polyline class="st3" points="11.16,14.55 11.16,15.53 12.11,16 	"/>
</g>
</svg>
