<?xml version="1.0" encoding="utf-8"?>
<!-- Generator: Adobe Illustrator 24.1.2, SVG Export Plug-In . SVG Version: 6.00 Build 0)  -->
<svg version="1.1" xmlns="http://www.w3.org/2000/svg" xmlns:xlink="http://www.w3.org/1999/xlink" x="0px" y="0px"
	 viewBox="0 0 32 32" style="enable-background:new 0 0 32 32;" xml:space="preserve">
<style type="text/css">
	.st0{display:none;}
	.st1{display:inline;fill:#272B5F;}
	.st2{fill:none;stroke:#FFFFFF;stroke-width:0.25;stroke-miterlimit:10;}
	.st3{fill:none;stroke:#FFFFFF;stroke-width:0.15;stroke-miterlimit:10;}
</style>
<g id="Слой_1">
</g>
<g id="Слой_2" class="st0">
	<rect y="-0.24" class="st1" width="32" height="32.24"/>
</g>
<g id="Слой_3">
	<polyline class="st2" points="19.1,7.19 19.88,7.1 19.99,7.72 20.86,7.66 20.86,6.94 21.46,6.85 	"/>
	<polygon class="st2" points="22.63,7.05 22.63,7.88 24.55,8.34 26.37,8.14 26.37,7.29 25.87,7.34 25.83,6.99 24.74,7.11 
		23.21,6.85 23.24,7.17 	"/>
	<line class="st2" x1="21.72" y1="7.39" x2="22.55" y2="7.39"/>
	<line class="st2" x1="5.22" y1="10.43" x2="10.88" y2="11.92"/>
	<line class="st2" x1="11.82" y1="16.3" x2="11.82" y2="25"/>
	<line class="st2" x1="9.16" y1="25.6" x2="3.86" y2="23.62"/>
	<line class="st2" x1="2.78" y1="10.89" x2="2.78" y2="17.11"/>
	<line class="st2" x1="2.01" y1="17.23" x2="7.31" y2="16.17"/>
	<line class="st2" x1="2.52" y1="20.75" x2="7.89" y2="19.62"/>
	<ellipse transform="matrix(0.9962 -0.0874 0.0874 0.9962 -0.9739 0.3625)" class="st3" cx="3.65" cy="11.3" rx="0.39" ry="0.62"/>
	<ellipse transform="matrix(0.9962 -0.0874 0.0874 0.9962 -1.9309 0.4125)" class="st3" cx="3.74" cy="22.25" rx="0.39" ry="0.62"/>
	
		<ellipse transform="matrix(0.9962 -0.0874 0.0874 0.9962 -2.1347 1.0446)" class="st3" cx="10.86" cy="24.89" rx="0.39" ry="0.62"/>
	
		<ellipse transform="matrix(0.9962 -0.0874 0.0874 0.9962 -1.1287 1.0018)" class="st3" cx="10.87" cy="13.38" rx="0.39" ry="0.62"/>
	<path class="st2" d="M2.79,10.82c0.01-0.09,0.03-0.19,0.07-0.3c0.03-0.09,0.05-0.17,0.1-0.28c0.06-0.12,0.1-0.2,0.19-0.26
		c0.08-0.05,0.16-0.06,0.2-0.06c0.06-0.01,0.09,0,0.26,0.03c0.33,0.07,0.29,0.07,0.34,0.07c0.12,0.01,0.2-0.01,0.24,0.05
		c0.01,0.02,0.02,0.05,0.02,0.09c0.01,0.06,0,0.11,0,0.13c-0.01,0.08,0,0.13,0.01,0.29c0.02,0.27-0.01,0.27,0.01,0.47
		c0.01,0.16,0.02,0.25,0.07,0.35c0.02,0.04,0.1,0.23,0.29,0.36c0.08,0.05,0.15,0.1,0.25,0.09c0.11-0.01,0.18-0.11,0.22-0.15
		c0.03-0.04,0.07-0.1,0.1-0.23c0.02-0.08,0.03-0.16,0.02-0.39c-0.01-0.22-0.03-0.4,0.01-0.52c0.02-0.07,0.05-0.14,0.05-0.14
		c0.01-0.03,0.03-0.06,0.04-0.08"/>
	<path class="st2" d="M3.83,20.85c-0.01,0.04-0.03,0.11-0.07,0.19c-0.04,0.07-0.07,0.12-0.13,0.16c-0.1,0.06-0.22,0.03-0.27,0.02
		c-0.05-0.01-0.1-0.04-0.2-0.09c-0.15-0.08-0.19-0.11-0.22-0.09c-0.04,0.02-0.03,0.12-0.02,0.2c0.02,0.18-0.01,0.35-0.01,0.53
		c0.01,0.61,0,0.58,0.02,0.67c0.02,0.11,0.05,0.3,0.17,0.52c0.13,0.25,0.3,0.4,0.38,0.47c0.15,0.12,0.29,0.2,0.4,0.24"/>
	<path class="st2" d="M10.95,11.93c0.08,0.03,0.19,0.07,0.3,0.16c0.08,0.07,0.17,0.16,0.3,0.41c0.12,0.24,0.22,0.39,0.26,0.62
		c0.02,0.1,0.02,0.2,0.03,0.28c0.01,0.14,0,0.17,0.01,0.38c0,0.21,0.01,0.21,0.01,0.39c0,0.21-0.01,0.19,0,0.26
		c0.01,0.11,0.03,0.16,0,0.19c-0.03,0.02-0.07-0.01-0.17-0.05c0,0-0.11-0.05-0.27-0.08c-0.14-0.03-0.22-0.05-0.32-0.03
		c-0.05,0.01-0.17,0.03-0.25,0.13c-0.06,0.07-0.07,0.15-0.1,0.3c-0.01,0.08-0.03,0.22-0.02,0.4c0.01,0.13,0.02,0.23,0.08,0.35
		c0.09,0.19,0.23,0.29,0.28,0.33c0.12,0.09,0.25,0.13,0.34,0.16c0.12,0.04,0.18,0.07,0.22,0.07c0.08,0.01,0.13,0.01,0.17,0.05
		c0.03,0.03,0.03,0.08,0.02,0.12"/>
	<path class="st2" d="M11.82,25.03c0,0.04,0,0.1,0,0.17c0,0.18,0,0.27-0.01,0.35c-0.01,0.12-0.03,0.24-0.1,0.38
		c-0.08,0.15-0.19,0.23-0.25,0.28c-0.08,0.06-0.16,0.12-0.28,0.14c-0.09,0.02-0.19-0.01-0.38-0.07c-0.22-0.06-0.15-0.08-0.4-0.16
		c-0.07-0.02-0.12-0.04-0.15-0.08c-0.03-0.05-0.02-0.09-0.02-0.22c0-0.07-0.01-0.06-0.01-0.18c-0.01-0.17,0-0.21-0.01-0.36
		c0-0.17-0.01-0.26-0.03-0.37c-0.02-0.1-0.05-0.22-0.13-0.35c-0.08-0.14-0.18-0.21-0.23-0.25c-0.08-0.06-0.13-0.1-0.2-0.11
		c-0.1-0.01-0.18,0.04-0.21,0.05c-0.09,0.06-0.14,0.14-0.15,0.17c-0.04,0.09-0.04,0.16-0.04,0.28c0,0.23,0.01,0.3,0.01,0.43
		c0,0.24-0.02,0.47-0.02,0.47l0,0c0,0.08-0.01,0.12-0.01,0.14"/>
	<path class="st2" d="M7.31,16.17c0.11,0.04,0.26,0.11,0.41,0.23c0.27,0.21,0.39,0.45,0.48,0.64c0.23,0.48,0.26,0.91,0.27,1.18
		c0,0.02,0.01,0.39-0.1,0.84c-0.05,0.2-0.1,0.33-0.21,0.44c-0.11,0.11-0.25,0.14-0.33,0.16"/>
	<path class="st2" d="M1.83,20.46c-0.1-0.09-0.23-0.22-0.36-0.4c-0.08-0.11-0.17-0.24-0.24-0.43c-0.08-0.19-0.1-0.35-0.13-0.56
		c-0.02-0.14-0.04-0.32-0.03-0.55c0.01-0.17,0.02-0.38,0.11-0.62c0.06-0.17,0.12-0.32,0.28-0.46c0.07-0.06,0.25-0.19,0.49-0.2
		c0.33-0.01,0.56,0.22,0.7,0.36c0.29,0.29,0.39,0.62,0.51,1.03c0.08,0.27,0.15,0.53,0.13,0.89c-0.01,0.17-0.02,0.36-0.13,0.57
		c-0.19,0.38-0.54,0.55-0.69,0.61l-0.01-0.45l-0.61-0.24L1.83,20.46z"/>
	<path class="st2" d="M4.72,16.55c0.01-0.16,0.03-0.38,0.07-0.63c0.04-0.22,0.1-0.52,0.24-0.88c0.1-0.25,0.25-0.6,0.57-0.95
		c0.14-0.15,0.35-0.38,0.68-0.52c0.7-0.3,1.41-0.01,1.64,0.09c0.63,0.26,0.98,0.7,1.28,1.06c0.38,0.47,0.56,0.89,0.74,1.32
		c0.48,1.11,0.56,2.04,0.57,2.3c0.02,0.29,0.05,0.74-0.04,1.31c-0.06,0.38-0.2,1.01-0.57,1.64c-0.19,0.32-0.34,0.48-0.46,0.59
		c-0.31,0.27-0.61,0.38-0.69,0.4c-0.07,0.02-0.4,0.13-0.84,0.07c-0.37-0.04-0.62-0.17-0.82-0.28c-0.33-0.17-0.54-0.35-0.67-0.47
		c-0.3-0.26-0.48-0.51-0.54-0.6c-0.2-0.27-0.33-0.54-0.41-0.78"/>
	<path class="st2" d="M3.02,16.85c-0.01-0.19-0.02-0.48,0-0.82c0.02-0.41,0.06-1.11,0.35-1.94c0.14-0.41,0.27-0.77,0.57-1.18
		c0.2-0.27,0.54-0.72,1.17-0.98c0.14-0.06,0.63-0.25,1.26-0.18c0.49,0.05,0.84,0.23,1.14,0.39c0.23,0.12,0.62,0.36,1.06,0.8
		c0.72,0.72,1.05,1.47,1.41,2.31c0.21,0.48,0.51,1.19,0.71,2.19c0.11,0.56,0.3,1.75,0.13,3.11c-0.08,0.64-0.21,1.06-0.31,1.33
		c-0.1,0.28-0.22,0.62-0.48,1.01c-0.19,0.29-0.52,0.79-1.14,1.13c-0.35,0.19-0.64,0.25-0.71,0.27c-0.1,0.02-0.42,0.07-0.83,0.01
		c-0.35-0.06-0.6-0.17-0.82-0.28c-0.17-0.08-0.52-0.26-0.88-0.6c-0.14-0.13-0.26-0.27-0.5-0.54c-0.26-0.3-0.45-0.52-0.66-0.84
		c-0.1-0.15-0.23-0.35-0.36-0.63C4.08,21.3,4.06,21.24,4,21.12c-0.12-0.24-0.23-0.42-0.31-0.53"/>
	<path class="st2" d="M7.5,12.2c-0.17-0.05-0.44-0.11-0.76-0.11c-0.14,0-0.36,0-0.61,0.07c-0.41,0.12-0.67,0.38-0.87,0.59
		c-0.44,0.44-0.63,0.9-0.73,1.17c-0.11,0.28-0.16,0.49-0.23,0.8c-0.11,0.46-0.15,0.82-0.18,1.1c-0.03,0.23-0.05,0.52-0.06,0.85"/>
	<path class="st2" d="M10.95,11.43c0.14,0.03,0.34,0.09,0.59,0.15c0.35,0.09,0.52,0.13,0.57,0.16c0.06,0.03,0.52,0.24,0.73,0.73
		c0.1,0.22,0.11,0.41,0.12,0.56c0.02,0.42,0.04,1.01,0.04,1.73"/>
	<path class="st2" d="M13,14.82l0.5-0.05v8.38c0.01,0.06,0.03,0.18-0.03,0.3c-0.07,0.14-0.2,0.19-0.3,0.23
		c-0.19,0.08-0.25,0.03-0.32,0.1c-0.1,0.1-0.02,0.27,0.04,0.67c0.03,0.24,0.07,0.5,0.01,0.82c-0.03,0.16-0.08,0.3-0.14,0.41
		c-0.07,0.13-0.14,0.28-0.29,0.38c-0.12,0.08-0.22,0.09-0.43,0.13c-0.16,0.03-0.38,0.08-0.66,0.18"/>
	<polyline class="st2" points="12.97,25.18 24.07,22.29 24.19,22.06 24.41,22.19 27.72,21.12 27.8,19.92 28.95,19.53 29,18.44 
		29.6,17.96 29.73,11.55 28.61,11.07 28.05,10.11 27.63,9.86 27.6,8.87 27.2,8.56 26.98,8.34 26.46,8.17 	"/>
	<line class="st2" x1="12.29" y1="11.74" x2="27.48" y2="8.98"/>
	<line class="st2" x1="13.5" y1="14.77" x2="29.73" y2="11.55"/>
	<line class="st2" x1="6.35" y1="9.92" x2="11.05" y2="11.43"/>
	<polyline class="st2" points="11.84,14.62 12.56,14.51 12.56,16.06 11.8,16.26 	"/>
	<line class="st2" x1="13.47" y1="23.45" x2="27.8" y2="19.92"/>
	<polyline class="st2" points="26.99,12.1 26.99,13.16 26.2,13.28 26.2,20.18 	"/>
	<polyline class="st2" points="3.6,9.95 4.73,9.68 5.61,9.94 16.07,8.21 16.07,8.53 19.1,9.4 21.88,8.92 21.56,6.77 19.16,6.19 
		18.48,6.34 18.93,6.53 18.29,6.57 17.54,6.45 16.67,6.62 19.1,7.19 19.08,9.32 	"/>
	<line class="st2" x1="16.14" y1="6.6" x2="16.07" y2="8.21"/>
	<polyline class="st2" points="23.07,6.75 23.29,6.49 24.5,6.32 25.63,6.6 25.83,6.99 	"/>
	<polygon class="st3" points="19.27,15.11 19.27,19.21 24.5,18.04 24.63,14 	"/>
	<ellipse class="st3" cx="4.72" cy="11.08" rx="0.34" ry="0.66"/>
	<ellipse class="st3" cx="9.81" cy="24.98" rx="0.4" ry="0.6"/>
	<ellipse class="st3" cx="11.28" cy="15.21" rx="0.32" ry="0.56"/>
	<path class="st3" d="M27.52,8.62c0.06-0.02,0.2-0.05,0.34,0.02c0.23,0.12,0.25,0.44,0.26,0.55c0,0.09,0.02,0.34-0.15,0.51
		c-0.12,0.13-0.29,0.15-0.34,0.16c-0.38,0.06-6.26,1.1-14.79,2.61"/>
	<path class="st3" d="M29.14,18.48c0.04,0.03,0.11,0.1,0.16,0.19c0.09,0.17,0.07,0.32,0.06,0.37c-0.01,0.07-0.02,0.17-0.11,0.28
		c-0.07,0.09-0.16,0.13-0.2,0.15"/>
	<ellipse class="st3" cx="2.01" cy="19.04" rx="0.17" ry="0.26"/>
</g>
</svg>
