<?xml version="1.0" encoding="utf-8"?>
<!-- Generator: Adobe Illustrator 24.1.2, SVG Export Plug-In . SVG Version: 6.00 Build 0)  -->
<svg version="1.1" xmlns="http://www.w3.org/2000/svg" xmlns:xlink="http://www.w3.org/1999/xlink" x="0px" y="0px"
	 viewBox="0 0 32 32" style="enable-background:new 0 0 32 32;" xml:space="preserve">
<style type="text/css">
	.st0{display:none;}
	.st1{display:inline;fill:#22273E;}
	.st2{fill:none;stroke:#E6E86F;stroke-width:0.25;stroke-miterlimit:10;}
	.st3{fill:none;stroke:#E6E86F;stroke-width:0.15;stroke-miterlimit:10;}
</style>
<g id="Слой_8">
</g>
<g id="Слой_2" class="st0">
	<rect class="st1" width="32" height="32"/>
</g>
<g id="Слой_15">
</g>
<g id="Слой_4">
	<path class="st2" d="M4.09,19.35c-0.07-0.19-0.17-0.45-0.29-0.77c-0.19-0.51-0.28-0.76-0.35-1c-0.17-0.56-0.25-1.01-0.31-1.4
		c-0.05-0.31-0.12-0.72-0.15-1.27C2.98,14.8,2.95,14.28,3,13.58c0.04-0.55,0.06-0.82,0.17-1.19c0.11-0.37,0.24-0.64,0.4-0.94
		c0.26-0.5,0.44-0.7,0.52-0.79c0.15-0.15,0.28-0.25,0.33-0.29c0.07-0.05,0.36-0.25,0.79-0.38c0.46-0.13,0.84-0.1,1.08-0.08
		c0.48,0.04,0.84,0.17,1.06,0.25c0.46,0.17,0.77,0.37,1.1,0.58c0.55,0.35,0.94,0.69,1.15,0.88c0.93,0.83,1.53,1.69,2.04,2.42
		c0.63,0.91,1.07,1.54,1.46,2.5c0.13,0.32,0.25,0.7,0.5,1.46c0.28,0.85,0.42,1.27,0.52,1.73c0.2,0.89,0.25,1.6,0.27,1.96
		c0.03,0.65-0.01,1.1-0.02,1.25c-0.04,0.48-0.12,0.83-0.15,0.96c-0.07,0.31-0.12,0.55-0.25,0.85c-0.08,0.19-0.22,0.52-0.52,0.88
		c-0.09,0.11-0.26,0.31-0.54,0.5c-0.34,0.23-0.64,0.33-0.81,0.38c-0.19,0.06-0.51,0.15-0.92,0.13c-0.34-0.02-0.58-0.1-0.94-0.23
		c-0.39-0.14-0.67-0.29-0.83-0.38c-0.39-0.21-0.67-0.41-0.88-0.56c-0.36-0.27-0.62-0.49-0.85-0.71c-0.22-0.2-0.44-0.4-0.71-0.69
		c-0.3-0.32-0.5-0.59-0.67-0.81c-0.12-0.16-0.3-0.39-0.5-0.71c-0.1-0.15-0.19-0.3-0.38-0.58c-0.09-0.13-0.16-0.24-0.21-0.31"/>
</g>
<g id="Слой_5">
	<path class="st3" d="M5.92,12.02c-0.02-0.01-0.07-0.04-0.21-0.35c-0.13-0.29-0.09-0.26-0.19-0.46c-0.05-0.1-0.1-0.19-0.13-0.33
		c-0.03-0.15,0-0.2,0.02-0.22c0.05-0.07,0.14-0.07,0.27-0.08c0.27-0.01,0.41-0.02,0.52,0c0.3,0.04,0.58,0.08,0.97,0.22
		c0.33,0.11,0.54,0.23,0.92,0.44c0,0,0.98,0.53,1.47,1.13c0.05,0.06,0.12,0.15,0.14,0.28C9.72,12.78,9.68,12.9,9.65,13
		c-0.05,0.14-0.07,0.11-0.16,0.31c-0.04,0.1-0.05,0.16-0.11,0.19c-0.03,0.02-0.09,0.04-0.2,0c-0.19-0.06-0.27-0.2-0.44-0.38
		c-0.13-0.13-0.25-0.22-0.5-0.39c-0.22-0.15-0.39-0.25-0.45-0.28c-0.14-0.07-0.29-0.16-0.5-0.23c-0.22-0.08-0.4-0.12-0.5-0.14
		c-0.19-0.04-0.29-0.06-0.42-0.06C6.1,12.01,6.03,12.08,5.92,12.02z"/>
</g>
<g id="Слой_6">
	<path class="st3" d="M4.34,11.28c0.07,0.01,0.12,0.1,0.22,0.27c0.1,0.16,0.15,0.31,0.19,0.41c0.02,0.06,0.03,0.1,0.06,0.19
		c0.09,0.27,0.08,0.32,0.08,0.34c-0.01,0.06-0.04,0.06-0.19,0.23c-0.04,0.04-0.13,0.15-0.2,0.27c-0.05,0.07-0.06,0.11-0.17,0.33
		c-0.16,0.33-0.16,0.3-0.2,0.41C4.05,13.86,4,13.98,3.96,14.14c-0.03,0.11-0.04,0.2-0.06,0.39c-0.03,0.22-0.04,0.34-0.05,0.5
		c-0.01,0.34,0.04,0.5-0.03,0.53c-0.03,0.01-0.05-0.01-0.25-0.13c-0.19-0.11-0.2-0.11-0.23-0.14c-0.07-0.07-0.08-0.17-0.09-0.41
		c-0.01-0.27,0-0.48,0-0.56c0.02-0.47,0-0.41,0.02-0.58c0.03-0.33,0.08-0.58,0.09-0.64c0.07-0.29,0.15-0.5,0.2-0.66
		c0.07-0.18,0.13-0.3,0.19-0.44c0.09-0.19,0.13-0.29,0.2-0.39C4.05,11.47,4.19,11.26,4.34,11.28z"/>
</g>
<g id="Слой_7">
	<path class="st3" d="M10.7,15.31c-0.03-0.11-0.01-0.21,0-0.25c0.01-0.04,0.02-0.06,0.11-0.23c0.07-0.14,0.11-0.21,0.17-0.3
		c0.08-0.11,0.11-0.12,0.13-0.13c0.06-0.01,0.12,0.04,0.22,0.16c0.15,0.18,0.25,0.34,0.31,0.44c0.12,0.19,0.14,0.19,0.23,0.34
		c0.06,0.1,0.12,0.19,0.38,0.75c0.18,0.4,0.28,0.6,0.39,0.88c0.03,0.06,0.01,0.03,0.16,0.39c0.23,0.57,0.23,0.58,0.28,0.7
		c0.1,0.26,0.16,0.45,0.25,0.72c0.12,0.36,0.18,0.53,0.23,0.77c0.03,0.11,0.09,0.37,0.14,0.7c0.05,0.36,0,0.19,0.05,0.56
		c0.02,0.15,0.04,0.24-0.02,0.28c-0.04,0.03-0.13,0-0.3-0.08c-0.06-0.03-0.07-0.04-0.25-0.13c-0.18-0.09-0.19-0.1-0.23-0.13
		c-0.03-0.02-0.12-0.09-0.19-0.19c-0.08-0.11-0.09-0.21-0.13-0.42c0,0-0.04-0.23-0.08-0.47c-0.03-0.17-0.07-0.39-0.14-0.64
		c-0.03-0.12-0.03-0.1-0.16-0.45c-0.16-0.46-0.15-0.46-0.22-0.64c-0.11-0.28-0.13-0.25-0.25-0.56c-0.14-0.34-0.11-0.36-0.22-0.58
		c-0.1-0.21-0.12-0.18-0.28-0.48c-0.15-0.27-0.13-0.31-0.25-0.48c-0.12-0.19-0.19-0.29-0.22-0.33C10.76,15.44,10.72,15.4,10.7,15.31
		z"/>
</g>
<g id="Слой_9">
	<path class="st3" d="M12.76,22.42c0.02-0.01,0.05-0.02,0.22,0.06c0.13,0.06,0.22,0.12,0.33,0.19c0.24,0.15,0.24,0.15,0.27,0.17
		c0.05,0.05,0.16,0.16,0.2,0.33c0.02,0.08,0.01,0.15,0,0.28c-0.01,0.1-0.03,0.2-0.08,0.39c-0.06,0.22-0.09,0.33-0.13,0.44
		c-0.06,0.16-0.12,0.27-0.23,0.48c-0.13,0.24-0.19,0.35-0.3,0.48c-0.13,0.16-0.25,0.26-0.33,0.33c-0.08,0.07-0.21,0.18-0.41,0.28
		c-0.1,0.05-0.19,0.09-0.38,0.16c-0.12,0.05-0.17,0.06-0.23,0.05c-0.1-0.02-0.16-0.1-0.22-0.17c-0.09-0.11-0.07-0.15-0.2-0.42
		c-0.03-0.06-0.07-0.15-0.13-0.28c-0.05-0.14-0.06-0.19-0.05-0.23c0.02-0.06,0.07-0.09,0.17-0.14c0.17-0.09,0.3-0.15,0.34-0.17
		c0.17-0.08,0.27-0.19,0.36-0.28c0.14-0.14,0.21-0.27,0.34-0.5c0.12-0.21,0.19-0.37,0.2-0.41c0.04-0.1,0.1-0.23,0.14-0.41
		c0.04-0.14,0.06-0.22,0.06-0.33C12.74,22.54,12.71,22.45,12.76,22.42z"/>
	<path class="st3" d="M6.87,23.03c0.05-0.02,0.11,0.06,0.25,0.22c0.09,0.11,0.19,0.21,0.28,0.31c0.16,0.18,0.31,0.29,0.45,0.41
		c0.23,0.18,0.43,0.29,0.55,0.36c0.21,0.12,0.37,0.19,0.47,0.23c0.21,0.09,0.32,0.14,0.45,0.17c0.13,0.03,0.17,0.02,0.31,0.06
		c0.15,0.04,0.23,0.07,0.31,0.14c0.08,0.07,0.11,0.14,0.17,0.27c0.04,0.08,0.03,0.08,0.09,0.23c0.07,0.18,0.09,0.19,0.13,0.3
		c0.04,0.13,0.08,0.24,0.03,0.28c-0.03,0.03-0.09,0.01-0.33-0.08c-0.19-0.07-0.29-0.11-0.33-0.13c-0.16-0.07-0.19-0.1-0.45-0.23
		c-0.31-0.16-0.3-0.14-0.42-0.22c-0.16-0.1-0.28-0.19-0.39-0.28c-0.11-0.09-0.11-0.1-0.38-0.33c-0.3-0.26-0.3-0.25-0.39-0.34
		c-0.16-0.15-0.13-0.16-0.34-0.38c-0.17-0.17-0.25-0.26-0.3-0.3c-0.13-0.11-0.2-0.15-0.23-0.25c-0.04-0.1-0.02-0.19-0.02-0.25
		C6.8,23.15,6.81,23.05,6.87,23.03z"/>
	<path class="st3" d="M5.62,21.44c0.08,0.01,0.12,0.09,0.16,0.16c0.02,0.03,0.05,0.09,0.05,0.17c0,0.09-0.04,0.21-0.09,0.22
		c-0.04,0.01-0.06-0.06-0.2-0.25c-0.07-0.09-0.1-0.11-0.09-0.16C5.44,21.5,5.53,21.43,5.62,21.44z"/>
	<path class="st3" d="M4.51,19.16c0.04-0.08-0.05-0.17-0.16-0.39c-0.04-0.09-0.09-0.25-0.19-0.56c-0.1-0.34-0.07-0.27-0.14-0.5
		c-0.06-0.18-0.08-0.23-0.08-0.33c0.01-0.1,0.04-0.16,0-0.23c-0.02-0.04-0.06-0.07-0.14-0.13c-0.1-0.07-0.15-0.11-0.19-0.09
		c-0.01,0-0.05,0.03-0.03,0.22c0.01,0.18,0.06,0.31,0.08,0.36c0.06,0.18-0.05-0.12,0.16,0.5c0.05,0.15,0.09,0.26,0.16,0.47
		c0.05,0.15,0.11,0.29,0.16,0.44c0.05,0.18,0.07,0.26,0.14,0.3C4.35,19.24,4.47,19.22,4.51,19.16z"/>
	<path class="st3" d="M4.8,11.63c-0.07-0.13-0.09-0.25-0.09-0.31c-0.01-0.11-0.02-0.24,0.06-0.33c0.02-0.02,0.08-0.08,0.16-0.08
		c0.09,0,0.16,0.06,0.2,0.11c0.09,0.09,0.12,0.19,0.17,0.34c0.02,0.06,0.05,0.18,0.06,0.34c0.01,0.14-0.01,0.18-0.03,0.2
		c-0.05,0.06-0.14,0.1-0.22,0.08c-0.03-0.01-0.06-0.02-0.17-0.17C4.86,11.71,4.82,11.66,4.8,11.63z"/>
	<path class="st3" d="M9.91,13.84c-0.04-0.18-0.07-0.27-0.06-0.33c0-0.07,0.01-0.2,0.11-0.27c0.09-0.07,0.21-0.04,0.25-0.03
		c0.15,0.03,0.23,0.14,0.3,0.22c0.1,0.12,0.14,0.24,0.16,0.31c0.02,0.08,0.06,0.21,0.03,0.38c-0.02,0.09-0.03,0.17-0.11,0.23
		c-0.1,0.08-0.24,0.05-0.25,0.05c-0.07-0.02-0.11-0.05-0.19-0.13c-0.05-0.04-0.11-0.1-0.16-0.19C9.97,14.06,9.96,14.03,9.91,13.84z"
		/>
	<path class="st3" d="M13.12,22.11c-0.08-0.11-0.14-0.19-0.17-0.31c-0.03-0.1-0.07-0.26,0.02-0.39c0-0.01,0.09-0.13,0.23-0.14
		c0.12-0.01,0.22,0.08,0.34,0.19c0.03,0.03,0.09,0.09,0.16,0.17c0.11,0.15,0.14,0.29,0.17,0.42c0.03,0.14,0.05,0.22,0.02,0.3
		c-0.05,0.11-0.15,0.15-0.16,0.16c-0.13,0.05-0.24,0-0.27-0.02c-0.02-0.01-0.05-0.03-0.2-0.2C13.19,22.2,13.15,22.15,13.12,22.11z"
		/>
	<path class="st3" d="M10.54,25.66c-0.05-0.13-0.07-0.2-0.06-0.28c0.01-0.04,0.02-0.14,0.09-0.19c0.09-0.06,0.2-0.01,0.22,0
		c0.05,0.02,0.08,0.06,0.13,0.11c0.02,0.03,0.06,0.08,0.16,0.27c0.07,0.14,0.09,0.19,0.09,0.22c0.03,0.1,0.04,0.16,0.02,0.22
		c-0.04,0.09-0.14,0.11-0.16,0.11c-0.09,0.02-0.17-0.03-0.22-0.06c-0.1-0.06-0.14-0.14-0.19-0.22
		C10.58,25.76,10.56,25.71,10.54,25.66z"/>
	<path class="st3" d="M3.76,16.02c-0.03-0.06-0.07-0.13-0.16-0.19c-0.04-0.03-0.12-0.08-0.19-0.05c-0.07,0.03-0.09,0.12-0.09,0.16
		c-0.02,0.1,0.01,0.18,0.05,0.28c0.04,0.1,0.08,0.22,0.19,0.3c0.04,0.03,0.14,0.09,0.14,0.09l0,0c0,0,0.12,0.05,0.17,0.02
		c0.05-0.04,0.02-0.16-0.03-0.38C3.8,16.1,3.77,16.05,3.76,16.02z"/>
	<path class="st3" d="M6.02,22.44c-0.01-0.03-0.05-0.17,0.02-0.22c0.04-0.03,0.11-0.02,0.16,0c0.06,0.03,0.06,0.08,0.14,0.2
		c0.06,0.09,0.07,0.08,0.14,0.19c0.07,0.1,0.08,0.15,0.08,0.17c0,0.01,0.02,0.14-0.05,0.17c-0.07,0.04-0.17-0.05-0.19-0.06
		c-0.06-0.05-0.06-0.08-0.13-0.19C6.1,22.54,6.05,22.54,6.02,22.44z"/>
</g>
<g id="Слой_10">
	<path class="st3" d="M4.76,19.08c-0.07-0.22-0.16-0.51-0.25-0.86c-0.08-0.32-0.13-0.54-0.22-0.97c-0.11-0.5-0.16-0.76-0.17-0.94
		c-0.03-0.44,0.02-0.79,0.05-0.97C4.22,15,4.29,14.77,4.4,14.44c0.09-0.28,0.15-0.41,0.23-0.55c0.13-0.21,0.26-0.33,0.3-0.36
		c0.21-0.19,0.43-0.28,0.52-0.31c0.25-0.09,0.45-0.09,0.59-0.09c0.27,0,0.46,0.05,0.63,0.09c0.34,0.09,0.58,0.22,0.72,0.3
		c0.25,0.14,0.42,0.27,0.7,0.5c0.09,0.08,0.24,0.19,0.42,0.36c0.27,0.24,0.44,0.45,0.64,0.67c0.19,0.22,0.38,0.43,0.59,0.73
		c0.18,0.25,0.29,0.44,0.44,0.69c0.2,0.34,0.38,0.65,0.58,1.08c0.19,0.42,0.29,0.73,0.45,1.23c0.12,0.38,0.21,0.66,0.3,1.05
		c0.05,0.21,0.08,0.45,0.16,0.94c0.09,0.56,0.09,0.7,0.09,0.83c0,0.3-0.03,0.54-0.06,0.72c-0.04,0.28-0.08,0.5-0.19,0.78
		c-0.1,0.25-0.22,0.56-0.52,0.83c-0.32,0.29-0.66,0.37-0.73,0.39c-0.3,0.07-0.54,0.03-0.88-0.03c-0.16-0.03-0.42-0.08-0.73-0.22
		c-0.23-0.1-0.38-0.21-0.69-0.44c-0.17-0.13-0.4-0.29-0.67-0.55c-0.22-0.2-0.36-0.37-0.52-0.55C6.57,22.29,6.46,22.17,6.35,22
		c-0.06-0.1-0.11-0.19-0.25-0.41c-0.07-0.11-0.13-0.21-0.17-0.27"/>
</g>
<g id="Слой_11">
	<path class="st3" d="M5.82,18.17c-0.04-0.13-0.07-0.32-0.08-0.53c-0.01-0.35,0.07-0.62,0.11-0.73c0.07-0.2,0.11-0.34,0.25-0.48
		c0.18-0.2,0.4-0.26,0.47-0.28c0.26-0.07,0.48-0.01,0.61,0.03c0.3,0.09,0.48,0.24,0.72,0.45c0.34,0.3,0.56,0.59,0.72,0.81
		c0.21,0.29,0.35,0.53,0.47,0.75c0.2,0.35,0.3,0.53,0.39,0.8c0.04,0.1,0.15,0.44,0.19,0.91c0.03,0.33,0.05,0.58-0.05,0.89
		c-0.04,0.12-0.11,0.37-0.33,0.59c-0.1,0.1-0.24,0.25-0.47,0.31c-0.23,0.06-0.43,0-0.53-0.03c-0.21-0.07-0.36-0.18-0.52-0.31
		c-0.11-0.09-0.18-0.16-0.25-0.23c-0.15-0.16-0.27-0.3-0.34-0.41"/>
</g>
<g id="Слой_12">
	<path class="st3" d="M6.58,18.18c0.03-0.03,0.09-0.09,0.18-0.12c0.16-0.06,0.32-0.02,0.4,0.01c0.24,0.08,0.37,0.25,0.46,0.35
		c0.1,0.13,0.15,0.24,0.25,0.45c0.07,0.15,0.11,0.25,0.14,0.39c0.04,0.19,0.03,0.34,0.02,0.46c-0.01,0.17-0.02,0.26-0.08,0.34
		c-0.08,0.11-0.2,0.15-0.22,0.15c-0.08,0.02-0.15,0.02-0.19,0.01"/>
</g>
<g id="Слой_13">
	<path class="st3" d="M5.6,18.73c0-0.05,0-0.14,0.04-0.25c0.05-0.14,0.14-0.22,0.19-0.26c0.02-0.02,0.19-0.15,0.42-0.13
		c0.18,0.01,0.3,0.11,0.45,0.22c0.19,0.15,0.3,0.31,0.4,0.46c0.05,0.07,0.17,0.26,0.27,0.53c0.1,0.26,0.13,0.47,0.14,0.54
		c0,0.03,0.03,0.22,0,0.46c-0.02,0.15-0.04,0.21-0.09,0.26c-0.07,0.07-0.17,0.07-0.21,0.07"/>
</g>
<g id="Слой_14">
	<line class="st3" x1="7.23" y1="20.64" x2="4.11" y2="22.2"/>
	<line class="st3" x1="5.66" y1="18.71" x2="2.73" y2="20.02"/>
</g>
<g id="Слой_16">
	<path class="st3" d="M2.76,20c-0.05,0.03-0.12,0.09-0.18,0.18c-0.08,0.14-0.07,0.29-0.06,0.42c0.02,0.2,0.08,0.34,0.18,0.55
		c0.06,0.14,0.13,0.26,0.2,0.38c0.16,0.25,0.26,0.31,0.31,0.34c0.05,0.02,0.1,0.06,0.19,0.07c0.12,0.02,0.16-0.02,0.22,0.02
		c0.04,0.02,0.03,0.04,0.12,0.15c0.05,0.07,0.08,0.1,0.11,0.12c0.07,0.03,0.14,0.01,0.24-0.01c0.05-0.01,0.12-0.04,0.2-0.08"/>
</g>
<g id="Слой_17">
	<path class="st2" d="M12.86,9.56c0.06-0.11,0.15-0.24,0.27-0.4c0.08-0.11,0.3-0.38,0.65-0.67c0.2-0.17,0.48-0.4,0.9-0.58
		c0.53-0.23,1-0.26,1.23-0.27c1-0.04,1.76,0.32,2.21,0.54c0.88,0.44,1.43,1,1.83,1.42c0.5,0.51,0.82,0.98,1,1.25
		c0.2,0.3,0.49,0.73,0.77,1.35c0.07,0.16,0.3,0.69,0.48,1.42c0.06,0.26,0.22,0.96,0.25,1.88c0.02,0.63-0.03,1.13-0.06,1.4
		c-0.05,0.39-0.1,0.8-0.27,1.31c-0.11,0.32-0.23,0.67-0.5,1.08c-0.17,0.26-0.46,0.62-0.9,0.94c-0.19,0.14-0.48,0.35-0.92,0.48
		c-0.22,0.07-0.42,0.09-0.56,0.1"/>
</g>
<g id="Слой_18">
	<path class="st2" d="M21.94,6.83c0.1-0.04,0.24-0.09,0.42-0.15c0.29-0.1,0.58-0.19,0.94-0.27c0.29-0.06,0.56-0.12,0.92-0.13
		c0.11,0,0.49,0,0.98,0.13c0.15,0.04,0.62,0.17,1.15,0.5c0.1,0.06,0.49,0.31,0.9,0.75c0.3,0.32,0.48,0.61,0.65,0.88
		c0.25,0.41,0.51,0.82,0.69,1.42c0.21,0.69,0.2,1.26,0.19,1.65c-0.01,0.38-0.03,0.94-0.27,1.6c-0.15,0.41-0.33,0.71-0.42,0.85
		c-0.14,0.24-0.26,0.43-0.48,0.65c-0.11,0.11-0.22,0.2-0.58,0.44c-0.22,0.15-0.53,0.34-0.9,0.56"/>
</g>
<g id="Слой_19">
</g>
<g id="Слой_20">
	<path class="st3" d="M14.1,9.16c0.14-0.08,0.33-0.17,0.56-0.27c0.22-0.09,0.56-0.21,1-0.25c0.51-0.04,0.9,0.07,1.28,0.17
		c0.47,0.13,0.8,0.3,0.89,0.34c0.43,0.22,0.71,0.46,0.98,0.69c0.12,0.1,0.46,0.39,0.84,0.84c0.11,0.13,0.36,0.43,0.63,0.84
		c0.34,0.52,0.55,1,0.69,1.33c0.06,0.14,0.32,0.82,0.48,1.75c0.11,0.66,0.12,1.16,0.13,1.28c0.01,0.61-0.06,1.07-0.08,1.2
		c-0.07,0.43-0.11,0.73-0.28,1.11c-0.18,0.41-0.41,0.68-0.56,0.88c-0.16,0.2-0.32,0.39-0.59,0.58c-0.24,0.17-0.47,0.26-0.63,0.31"/>
</g>
<g id="Слой_21">
	<path class="st3" d="M5.63,9.89C5.74,9.85,5.89,9.8,6.07,9.77C6.19,9.74,6.43,9.7,6.82,9.73c0.46,0.04,0.8,0.14,1.08,0.23
		c0.58,0.19,0.98,0.41,1.11,0.48c0.46,0.26,0.77,0.52,1.11,0.81c0.31,0.27,0.53,0.48,0.72,0.67c0.22,0.22,0.55,0.55,0.92,1.02
		c0.33,0.41,0.54,0.73,0.88,1.25c0.3,0.46,0.52,0.83,0.64,1.05c0.21,0.37,0.37,0.65,0.56,1.05c0.16,0.34,0.27,0.6,0.47,1.13
		c0.21,0.54,0.32,0.82,0.41,1.13c0.12,0.42,0.19,0.78,0.23,1.05c0.06,0.32,0.09,0.57,0.11,0.69c0.03,0.25,0.07,0.57,0.09,0.98
		c0.01,0.23,0.02,0.51,0,0.88c-0.01,0.23-0.04,0.59-0.14,1.03c-0.06,0.25-0.13,0.44-0.27,0.84c-0.17,0.49-0.25,0.64-0.3,0.72
		c-0.1,0.17-0.19,0.29-0.38,0.52c-0.23,0.28-0.36,0.44-0.58,0.61c-0.17,0.12-0.32,0.2-0.42,0.25"/>
</g>
<g id="Слой_22">
	<line class="st3" x1="19.45" y1="19.97" x2="15.16" y2="22.33"/>
</g>
<g id="Слой_23">
	<line class="st3" x1="14.1" y1="9.16" x2="9.53" y2="10.79"/>
</g>
<g id="Слой_24">
	<polyline class="st3" points="16.06,7.4 16.06,7.16 19.26,6.2 24.36,7.4 21.14,8.63 20.31,8.42 	"/>
</g>
<g id="Слой_25">
	<polyline class="st3" points="24.58,7.42 24.58,7.88 21.18,9.16 21.14,8.63 	"/>
</g>
<g id="Слой_26">
	<polyline class="st3" points="21.01,20.27 23.15,21.15 25.37,19.72 26.14,15.67 23.42,17.32 	"/>
</g>
<g id="Слой_27">
	<polyline class="st2" points="19.29,20.13 18.96,24.15 16.02,26.24 14.21,25.21 	"/>
</g>
<g id="Слой_28">
	<path class="st3" d="M15.42,7.65c0.13-0.04,0.31-0.09,0.52-0.15c0.19-0.05,0.5-0.12,0.85-0.17c0.24-0.03,0.6-0.07,1.02-0.02
		c0.49,0.06,0.83,0.22,1.35,0.46c0.28,0.13,0.6,0.28,0.96,0.52c0.74,0.5,1.16,1.07,1.71,1.83c0.26,0.36,0.53,0.74,0.83,1.31
		c0.24,0.46,0.66,1.28,0.85,2.42c0.12,0.7,0.1,1.23,0.08,1.94c-0.02,0.86-0.12,1.26-0.15,1.37c-0.08,0.34-0.21,0.85-0.58,1.38
		c-0.22,0.32-0.45,0.52-0.77,0.81c-0.16,0.15-0.44,0.4-0.85,0.67c-0.27,0.18-0.65,0.39-1.13,0.58"/>
</g>
<g id="Слой_29">
</g>
<g id="Слой_30">
	<path class="st3" d="M21.09,14.64c0.1,0.06,0.09,0.21,0.09,0.44c0.01,0.59,0.08,0.43,0.09,1c0.01,0.59-0.06,1.05-0.09,1.23
		c-0.03,0.19-0.09,0.52-0.22,0.88c-0.05,0.13-0.11,0.26-0.2,0.41c-0.03,0.05-0.11,0.16-0.23,0.28c-0.22,0.22-0.45,0.32-0.59,0.39
		c-0.17,0.08-0.46,0.25-1.03,0.58c-0.4,0.23-0.34,0.22-0.89,0.55c-0.39,0.23-0.37,0.21-0.92,0.53c-0.46,0.27-0.47,0.28-0.84,0.5
		c-0.4,0.23-0.41,0.23-0.53,0.31c-0.15,0.11-0.25,0.2-0.28,0.17c-0.03-0.03,0.06-0.16,0.14-0.34c0.07-0.17,0.11-0.34,0.17-0.69
		c0.05-0.27,0.09-0.46,0.11-0.73c0.03-0.35,0.01-0.61,0-0.88c-0.01-0.26-0.04-0.46-0.06-0.69c-0.05-0.46-0.08-0.69-0.11-0.77
		c-0.04-0.1-0.1-0.21-0.06-0.33c0.02-0.07,0.08-0.11,0.2-0.19c0.27-0.17,0.39-0.22,0.39-0.22c0.29-0.12,0.55-0.28,0.83-0.42
		c0.24-0.12,0.43-0.22,0.67-0.34c0.45-0.24,0.45-0.25,0.78-0.42c0.37-0.19,0.38-0.17,0.77-0.38c0.19-0.1,0.36-0.19,0.64-0.34
		c0.09-0.05,0.27-0.14,0.63-0.33C20.91,14.64,21.01,14.59,21.09,14.64z"/>
	<path class="st3" d="M23.73,15.41c0.04-0.21,0.06-0.35,0.08-0.56c0.02-0.26,0.01-0.46,0-0.73c-0.02-0.44-0.03-0.65-0.06-0.73
		c-0.03-0.08-0.1-0.19-0.05-0.3c0.03-0.06,0.08-0.09,0.16-0.13c0.23-0.11,0.44-0.18,0.53-0.22c0.09-0.03,0.05-0.02,0.36-0.16
		c0.4-0.17,0.42-0.17,0.67-0.28c0.15-0.06,0.11-0.05,0.66-0.31c0.3-0.14,0.46-0.22,0.56-0.27c0.54-0.25,0.52-0.21,0.66-0.3
		c0.17-0.11,0.27-0.21,0.34-0.17c0.05,0.03,0.06,0.11,0.06,0.23c0.01,0.32,0.02,0.48,0.02,0.61c-0.02,0.38,0.02,0.34,0,0.63
		c-0.01,0.18-0.05,0.48-0.16,0.83c-0.11,0.35-0.15,0.26-0.31,0.73c-0.07,0.2-0.11,0.34-0.23,0.48c-0.05,0.06-0.12,0.12-0.31,0.25
		c-0.26,0.17-0.46,0.28-0.55,0.33c-0.09,0.05-0.01,0.01-0.78,0.47c-0.2,0.12-0.38,0.23-0.73,0.44c-0.8,0.48-0.79,0.47-0.81,0.48
		c-0.14,0.11-0.19,0.16-0.23,0.14C23.54,16.85,23.49,16.75,23.73,15.41z"/>
</g>
</svg>
